M48
; DRILL file {KiCad (5.1.2)-1} date 25.10.2019 14:55:48
; FORMAT={-:-/ absolute / inch / decimal}
; #@! TF.CreationDate,2019-10-25T14:55:48+02:00
; #@! TF.GenerationSoftware,Kicad,Pcbnew,(5.1.2)-1
; #@! TF.FileFunction,Plated,1,2,PTH
FMAT,2
INCH
T1C0.0157
T2C0.0315
T3C0.0394
T4C0.0400
T5C0.0433
T6C0.0551
T7C0.0591
T8C0.2402
%
G90
G05
T1
X2.38Y-3.33
X2.59Y-1.94
X2.66Y-2.315
X2.76Y-2.0796
X2.76Y-2.32
X2.77Y-3.8254
X2.8154Y-1.755
X2.8154Y-1.8575
X2.8154Y-1.9425
X2.83Y-2.075
X2.875Y-2.155
X2.905Y-2.085
X3.0704Y-1.545
X3.1996Y-1.365
X3.245Y-3.245
X3.285Y-3.34
X3.455Y-3.63
X3.465Y-2.015
X3.495Y-3.675
X3.54Y-3.705
X3.635Y-5.09
X3.865Y-4.64
X4.025Y-2.715
X4.1054Y-2.715
X4.11Y-3.12
X4.135Y-2.63
X4.1904Y-3.12
X4.305Y-2.845
X4.785Y-3.57
X4.99Y-3.365
X5.3985Y-2.415
X5.4271Y-2.52
X5.4556Y-2.625
X5.49Y-2.72
X5.5185Y-2.82
T2
X2.21Y-3.13
X2.21Y-3.23
X2.21Y-3.33
X2.21Y-3.43
X2.51Y-3.13
X2.51Y-3.23
X2.51Y-3.33
X2.51Y-3.43
X2.22Y-2.06
X2.22Y-2.16
X2.22Y-2.26
X2.22Y-2.36
X2.22Y-2.46
X2.22Y-2.56
X2.22Y-2.66
X2.22Y-2.76
X2.22Y-2.86
X2.52Y-2.06
X2.52Y-2.16
X2.52Y-2.26
X2.52Y-2.36
X2.52Y-2.46
X2.52Y-2.56
X2.52Y-2.66
X2.52Y-2.76
X2.52Y-2.86
X4.58Y-1.56
X4.58Y-1.66
X4.58Y-1.76
X4.58Y-1.86
X4.58Y-1.96
X4.58Y-2.06
X4.58Y-2.16
X4.58Y-2.26
X4.58Y-2.36
X4.58Y-2.46
X4.58Y-2.56
X4.58Y-2.66
X4.58Y-2.76
X4.58Y-2.86
X4.88Y-1.56
X4.88Y-1.66
X4.88Y-1.76
X4.88Y-1.86
X4.88Y-1.96
X4.88Y-2.06
X4.88Y-2.16
X4.88Y-2.26
X4.88Y-2.36
X4.88Y-2.46
X4.88Y-2.56
X4.88Y-2.66
X4.88Y-2.76
X4.88Y-2.86
X3.89Y-3.265
X3.89Y-3.365
X3.89Y-3.465
X3.89Y-3.565
X3.89Y-3.665
X3.89Y-3.765
X3.89Y-3.865
X3.89Y-3.965
X3.89Y-4.065
X3.89Y-4.165
X4.19Y-3.265
X4.19Y-3.365
X4.19Y-3.465
X4.19Y-3.565
X4.19Y-3.665
X4.19Y-3.765
X4.19Y-3.865
X4.19Y-3.965
X4.19Y-4.065
X4.19Y-4.165
X4.0Y-1.66
X4.0Y-1.76
X4.0Y-1.86
X4.0Y-1.96
X4.0Y-2.06
X4.0Y-2.16
X4.0Y-2.26
X4.0Y-2.36
X4.0Y-2.46
X4.0Y-2.56
X4.3Y-1.66
X4.3Y-1.76
X4.3Y-1.86
X4.3Y-1.96
X4.3Y-2.06
X4.3Y-2.16
X4.3Y-2.26
X4.3Y-2.36
X4.3Y-2.46
X4.3Y-2.56
X4.01Y-4.43
X4.01Y-4.5284
X4.585Y-3.265
X4.585Y-3.365
X4.585Y-3.465
X4.585Y-3.565
X4.585Y-3.665
X4.585Y-3.765
X4.585Y-3.865
X4.585Y-3.965
X4.585Y-4.065
X4.585Y-4.165
X4.885Y-3.265
X4.885Y-3.365
X4.885Y-3.465
X4.885Y-3.565
X4.885Y-3.665
X4.885Y-3.765
X4.885Y-3.865
X4.885Y-3.965
X4.885Y-4.065
X4.885Y-4.165
X3.06Y-1.66
X3.06Y-1.76
X3.06Y-1.86
X3.06Y-1.96
X3.06Y-2.06
X3.06Y-2.16
X3.06Y-2.26
X3.06Y-2.36
X3.06Y-2.46
X3.06Y-2.56
X3.06Y-2.66
X3.06Y-2.76
X3.06Y-2.86
X3.06Y-2.96
X3.06Y-3.06
X3.06Y-3.16
X3.06Y-3.26
X3.06Y-3.36
X3.06Y-3.46
X3.06Y-3.56
X3.66Y-1.66
X3.66Y-1.76
X3.66Y-1.86
X3.66Y-1.96
X3.66Y-2.06
X3.66Y-2.16
X3.66Y-2.26
X3.66Y-2.36
X3.66Y-2.46
X3.66Y-2.56
X3.66Y-2.66
X3.66Y-2.76
X3.66Y-2.86
X3.66Y-2.96
X3.66Y-3.06
X3.66Y-3.16
X3.66Y-3.26
X3.66Y-3.36
X3.66Y-3.46
X3.66Y-3.56
X2.47Y-3.955
X2.47Y-4.255
X2.57Y-3.955
X2.57Y-4.255
X2.67Y-3.955
X2.67Y-4.255
X2.77Y-3.955
X2.77Y-4.255
X2.87Y-3.955
X2.87Y-4.255
X2.97Y-3.955
X2.97Y-4.255
X3.07Y-3.955
X3.07Y-4.255
X3.17Y-3.955
X3.17Y-4.255
X3.27Y-3.955
X3.27Y-4.255
X3.37Y-3.955
X3.37Y-4.255
T3
X5.31Y-2.32
X5.31Y-2.42
X5.31Y-2.52
X5.31Y-2.62
X5.31Y-2.72
X5.31Y-2.82
X5.31Y-2.92
X5.31Y-3.02
X5.31Y-3.12
X5.31Y-3.22
X2.925Y-1.66
X2.925Y-1.76
X2.925Y-1.86
X2.925Y-1.96
X4.445Y-3.465
X4.445Y-3.565
X4.445Y-3.665
X4.445Y-3.765
X2.8088Y-4.715
X2.8633Y-4.815
X2.9178Y-4.715
X2.9724Y-4.815
X3.0269Y-4.715
X3.0814Y-4.815
X3.1359Y-4.715
X3.1905Y-4.815
X3.245Y-4.715
T4
X3.88Y-4.935
X3.88Y-5.035
X3.98Y-4.935
X3.98Y-5.035
X4.08Y-4.935
X4.08Y-5.035
X4.18Y-4.935
X4.18Y-5.035
X4.28Y-4.935
X4.28Y-5.035
T5
X2.52Y-1.41
X2.52Y-1.5872
X2.7759Y-1.41
X2.7759Y-1.5872
X4.31Y-4.42
X4.31Y-4.52
X4.31Y-4.62
T6
X2.14Y-3.68
X2.14Y-3.88
X4.84Y-5.005
X5.04Y-5.005
T7
X1.93Y-2.5971
X1.93Y-2.79
X2.71Y-3.33
X2.71Y-3.5229
T8
X5.35Y-4.135
X5.35Y-4.7256
T0
M30
