G04 #@! TF.GenerationSoftware,KiCad,Pcbnew,(5.1.2)-1*
G04 #@! TF.CreationDate,2019-10-25T14:55:43+02:00*
G04 #@! TF.ProjectId,TTK4155-Embedded-PCB,54544b34-3135-4352-9d45-6d6265646465,rev?*
G04 #@! TF.SameCoordinates,Original*
G04 #@! TF.FileFunction,Legend,Top*
G04 #@! TF.FilePolarity,Positive*
%FSLAX46Y46*%
G04 Gerber Fmt 4.6, Leading zero omitted, Abs format (unit mm)*
G04 Created by KiCad (PCBNEW (5.1.2)-1) date 2019-10-25 14:55:43*
%MOMM*%
%LPD*%
G04 APERTURE LIST*
%ADD10C,0.150000*%
%ADD11C,0.300000*%
%ADD12C,0.120000*%
G04 APERTURE END LIST*
D10*
X99822047Y-112466428D02*
X100583952Y-112466428D01*
X100203000Y-112847380D02*
X100203000Y-112085476D01*
D11*
X135128142Y-128282000D02*
X134985285Y-128210571D01*
X134771000Y-128210571D01*
X134556714Y-128282000D01*
X134413857Y-128424857D01*
X134342428Y-128567714D01*
X134271000Y-128853428D01*
X134271000Y-129067714D01*
X134342428Y-129353428D01*
X134413857Y-129496285D01*
X134556714Y-129639142D01*
X134771000Y-129710571D01*
X134913857Y-129710571D01*
X135128142Y-129639142D01*
X135199571Y-129567714D01*
X135199571Y-129067714D01*
X134913857Y-129067714D01*
X135842428Y-129710571D02*
X135842428Y-128210571D01*
X136699571Y-129710571D01*
X136699571Y-128210571D01*
X137413857Y-129710571D02*
X137413857Y-128210571D01*
X137771000Y-128210571D01*
X137985285Y-128282000D01*
X138128142Y-128424857D01*
X138199571Y-128567714D01*
X138271000Y-128853428D01*
X138271000Y-129067714D01*
X138199571Y-129353428D01*
X138128142Y-129496285D01*
X137985285Y-129639142D01*
X137771000Y-129710571D01*
X137413857Y-129710571D01*
X141013571Y-99647142D02*
X141013571Y-100504285D01*
X141013571Y-100075714D02*
X139513571Y-100075714D01*
X139727857Y-100218571D01*
X139870714Y-100361428D01*
X139942142Y-100504285D01*
X139656428Y-99075714D02*
X139585000Y-99004285D01*
X139513571Y-98861428D01*
X139513571Y-98504285D01*
X139585000Y-98361428D01*
X139656428Y-98290000D01*
X139799285Y-98218571D01*
X139942142Y-98218571D01*
X140156428Y-98290000D01*
X141013571Y-99147142D01*
X141013571Y-98218571D01*
X139513571Y-97790000D02*
X141013571Y-97290000D01*
X139513571Y-96790000D01*
X140442142Y-96290000D02*
X140442142Y-95147142D01*
X141013571Y-95718571D02*
X139870714Y-95718571D01*
D10*
X136739380Y-83048761D02*
X136739380Y-82858285D01*
X136787000Y-82763047D01*
X136882238Y-82667809D01*
X137072714Y-82620190D01*
X137406047Y-82620190D01*
X137596523Y-82667809D01*
X137691761Y-82763047D01*
X137739380Y-82858285D01*
X137739380Y-83048761D01*
X137691761Y-83144000D01*
X137596523Y-83239238D01*
X137406047Y-83286857D01*
X137072714Y-83286857D01*
X136882238Y-83239238D01*
X136787000Y-83144000D01*
X136739380Y-83048761D01*
X137739380Y-81715428D02*
X137739380Y-82191619D01*
X136739380Y-82191619D01*
X137215571Y-81382095D02*
X137215571Y-81048761D01*
X137739380Y-80905904D02*
X137739380Y-81382095D01*
X136739380Y-81382095D01*
X136739380Y-80905904D01*
X137739380Y-80477333D02*
X136739380Y-80477333D01*
X136739380Y-80239238D01*
X136787000Y-80096380D01*
X136882238Y-80001142D01*
X136977476Y-79953523D01*
X137167952Y-79905904D01*
X137310809Y-79905904D01*
X137501285Y-79953523D01*
X137596523Y-80001142D01*
X137691761Y-80096380D01*
X137739380Y-80239238D01*
X137739380Y-80477333D01*
X137739380Y-78715428D02*
X136739380Y-78715428D01*
X137453666Y-78382095D01*
X136739380Y-78048761D01*
X137739380Y-78048761D01*
X137691761Y-77191619D02*
X137739380Y-77286857D01*
X137739380Y-77477333D01*
X137691761Y-77572571D01*
X137596523Y-77620190D01*
X137215571Y-77620190D01*
X137120333Y-77572571D01*
X137072714Y-77477333D01*
X137072714Y-77286857D01*
X137120333Y-77191619D01*
X137215571Y-77144000D01*
X137310809Y-77144000D01*
X137406047Y-77620190D01*
X137739380Y-76715428D02*
X137072714Y-76715428D01*
X137167952Y-76715428D02*
X137120333Y-76667809D01*
X137072714Y-76572571D01*
X137072714Y-76429714D01*
X137120333Y-76334476D01*
X137215571Y-76286857D01*
X137739380Y-76286857D01*
X137215571Y-76286857D02*
X137120333Y-76239238D01*
X137072714Y-76144000D01*
X137072714Y-76001142D01*
X137120333Y-75905904D01*
X137215571Y-75858285D01*
X137739380Y-75858285D01*
X137739380Y-75239238D02*
X137691761Y-75334476D01*
X137644142Y-75382095D01*
X137548904Y-75429714D01*
X137263190Y-75429714D01*
X137167952Y-75382095D01*
X137120333Y-75334476D01*
X137072714Y-75239238D01*
X137072714Y-75096380D01*
X137120333Y-75001142D01*
X137167952Y-74953523D01*
X137263190Y-74905904D01*
X137548904Y-74905904D01*
X137644142Y-74953523D01*
X137691761Y-75001142D01*
X137739380Y-75096380D01*
X137739380Y-75239238D01*
X137739380Y-74477333D02*
X137072714Y-74477333D01*
X137263190Y-74477333D02*
X137167952Y-74429714D01*
X137120333Y-74382095D01*
X137072714Y-74286857D01*
X137072714Y-74191619D01*
X137072714Y-73953523D02*
X137739380Y-73715428D01*
X137072714Y-73477333D02*
X137739380Y-73715428D01*
X137977476Y-73810666D01*
X138025095Y-73858285D01*
X138072714Y-73953523D01*
X137739380Y-71905904D02*
X137215571Y-71905904D01*
X137120333Y-71953523D01*
X137072714Y-72048761D01*
X137072714Y-72239238D01*
X137120333Y-72334476D01*
X137691761Y-71905904D02*
X137739380Y-72001142D01*
X137739380Y-72239238D01*
X137691761Y-72334476D01*
X137596523Y-72382095D01*
X137501285Y-72382095D01*
X137406047Y-72334476D01*
X137358428Y-72239238D01*
X137358428Y-72001142D01*
X137310809Y-71905904D01*
X137072714Y-71429714D02*
X137739380Y-71429714D01*
X137167952Y-71429714D02*
X137120333Y-71382095D01*
X137072714Y-71286857D01*
X137072714Y-71144000D01*
X137120333Y-71048761D01*
X137215571Y-71001142D01*
X137739380Y-71001142D01*
X137739380Y-70096380D02*
X136739380Y-70096380D01*
X137691761Y-70096380D02*
X137739380Y-70191619D01*
X137739380Y-70382095D01*
X137691761Y-70477333D01*
X137644142Y-70524952D01*
X137548904Y-70572571D01*
X137263190Y-70572571D01*
X137167952Y-70524952D01*
X137120333Y-70477333D01*
X137072714Y-70382095D01*
X137072714Y-70191619D01*
X137120333Y-70096380D01*
X137691761Y-68429714D02*
X137739380Y-68524952D01*
X137739380Y-68715428D01*
X137691761Y-68810666D01*
X137644142Y-68858285D01*
X137548904Y-68905904D01*
X137263190Y-68905904D01*
X137167952Y-68858285D01*
X137120333Y-68810666D01*
X137072714Y-68715428D01*
X137072714Y-68524952D01*
X137120333Y-68429714D01*
X137739380Y-67858285D02*
X137691761Y-67953523D01*
X137644142Y-68001142D01*
X137548904Y-68048761D01*
X137263190Y-68048761D01*
X137167952Y-68001142D01*
X137120333Y-67953523D01*
X137072714Y-67858285D01*
X137072714Y-67715428D01*
X137120333Y-67620190D01*
X137167952Y-67572571D01*
X137263190Y-67524952D01*
X137548904Y-67524952D01*
X137644142Y-67572571D01*
X137691761Y-67620190D01*
X137739380Y-67715428D01*
X137739380Y-67858285D01*
X137072714Y-67096380D02*
X137739380Y-67096380D01*
X137167952Y-67096380D02*
X137120333Y-67048761D01*
X137072714Y-66953523D01*
X137072714Y-66810666D01*
X137120333Y-66715428D01*
X137215571Y-66667809D01*
X137739380Y-66667809D01*
X137072714Y-66334476D02*
X137072714Y-65953523D01*
X136739380Y-66191619D02*
X137596523Y-66191619D01*
X137691761Y-66144000D01*
X137739380Y-66048761D01*
X137739380Y-65953523D01*
X137739380Y-65620190D02*
X137072714Y-65620190D01*
X137263190Y-65620190D02*
X137167952Y-65572571D01*
X137120333Y-65524952D01*
X137072714Y-65429714D01*
X137072714Y-65334476D01*
X137739380Y-64858285D02*
X137691761Y-64953523D01*
X137644142Y-65001142D01*
X137548904Y-65048761D01*
X137263190Y-65048761D01*
X137167952Y-65001142D01*
X137120333Y-64953523D01*
X137072714Y-64858285D01*
X137072714Y-64715428D01*
X137120333Y-64620190D01*
X137167952Y-64572571D01*
X137263190Y-64524952D01*
X137548904Y-64524952D01*
X137644142Y-64572571D01*
X137691761Y-64620190D01*
X137739380Y-64715428D01*
X137739380Y-64858285D01*
X137739380Y-63953523D02*
X137691761Y-64048761D01*
X137596523Y-64096380D01*
X136739380Y-64096380D01*
X137739380Y-63429714D02*
X137691761Y-63524952D01*
X137596523Y-63572571D01*
X136739380Y-63572571D01*
X137691761Y-62667809D02*
X137739380Y-62763047D01*
X137739380Y-62953523D01*
X137691761Y-63048761D01*
X137596523Y-63096380D01*
X137215571Y-63096380D01*
X137120333Y-63048761D01*
X137072714Y-62953523D01*
X137072714Y-62763047D01*
X137120333Y-62667809D01*
X137215571Y-62620190D01*
X137310809Y-62620190D01*
X137406047Y-63096380D01*
X137739380Y-62191619D02*
X137072714Y-62191619D01*
X137263190Y-62191619D02*
X137167952Y-62144000D01*
X137120333Y-62096380D01*
X137072714Y-62001142D01*
X137072714Y-61905904D01*
X110894761Y-101964190D02*
X110942380Y-101821333D01*
X110942380Y-101583238D01*
X110894761Y-101488000D01*
X110847142Y-101440380D01*
X110751904Y-101392761D01*
X110656666Y-101392761D01*
X110561428Y-101440380D01*
X110513809Y-101488000D01*
X110466190Y-101583238D01*
X110418571Y-101773714D01*
X110370952Y-101868952D01*
X110323333Y-101916571D01*
X110228095Y-101964190D01*
X110132857Y-101964190D01*
X110037619Y-101916571D01*
X109990000Y-101868952D01*
X109942380Y-101773714D01*
X109942380Y-101535619D01*
X109990000Y-101392761D01*
X110942380Y-100821333D02*
X110894761Y-100916571D01*
X110799523Y-100964190D01*
X109942380Y-100964190D01*
X110942380Y-100440380D02*
X110275714Y-100440380D01*
X109942380Y-100440380D02*
X109990000Y-100488000D01*
X110037619Y-100440380D01*
X109990000Y-100392761D01*
X109942380Y-100440380D01*
X110037619Y-100440380D01*
X110942380Y-99535619D02*
X109942380Y-99535619D01*
X110894761Y-99535619D02*
X110942380Y-99630857D01*
X110942380Y-99821333D01*
X110894761Y-99916571D01*
X110847142Y-99964190D01*
X110751904Y-100011809D01*
X110466190Y-100011809D01*
X110370952Y-99964190D01*
X110323333Y-99916571D01*
X110275714Y-99821333D01*
X110275714Y-99630857D01*
X110323333Y-99535619D01*
X110894761Y-98678476D02*
X110942380Y-98773714D01*
X110942380Y-98964190D01*
X110894761Y-99059428D01*
X110799523Y-99107047D01*
X110418571Y-99107047D01*
X110323333Y-99059428D01*
X110275714Y-98964190D01*
X110275714Y-98773714D01*
X110323333Y-98678476D01*
X110418571Y-98630857D01*
X110513809Y-98630857D01*
X110609047Y-99107047D01*
X110942380Y-98202285D02*
X110275714Y-98202285D01*
X110466190Y-98202285D02*
X110370952Y-98154666D01*
X110323333Y-98107047D01*
X110275714Y-98011809D01*
X110275714Y-97916571D01*
X110894761Y-97630857D02*
X110942380Y-97535619D01*
X110942380Y-97345142D01*
X110894761Y-97249904D01*
X110799523Y-97202285D01*
X110751904Y-97202285D01*
X110656666Y-97249904D01*
X110609047Y-97345142D01*
X110609047Y-97488000D01*
X110561428Y-97583238D01*
X110466190Y-97630857D01*
X110418571Y-97630857D01*
X110323333Y-97583238D01*
X110275714Y-97488000D01*
X110275714Y-97345142D01*
X110323333Y-97249904D01*
X110942380Y-95583238D02*
X110418571Y-95583238D01*
X110323333Y-95630857D01*
X110275714Y-95726095D01*
X110275714Y-95916571D01*
X110323333Y-96011809D01*
X110894761Y-95583238D02*
X110942380Y-95678476D01*
X110942380Y-95916571D01*
X110894761Y-96011809D01*
X110799523Y-96059428D01*
X110704285Y-96059428D01*
X110609047Y-96011809D01*
X110561428Y-95916571D01*
X110561428Y-95678476D01*
X110513809Y-95583238D01*
X110275714Y-95107047D02*
X110942380Y-95107047D01*
X110370952Y-95107047D02*
X110323333Y-95059428D01*
X110275714Y-94964190D01*
X110275714Y-94821333D01*
X110323333Y-94726095D01*
X110418571Y-94678476D01*
X110942380Y-94678476D01*
X110942380Y-93773714D02*
X109942380Y-93773714D01*
X110894761Y-93773714D02*
X110942380Y-93868952D01*
X110942380Y-94059428D01*
X110894761Y-94154666D01*
X110847142Y-94202285D01*
X110751904Y-94249904D01*
X110466190Y-94249904D01*
X110370952Y-94202285D01*
X110323333Y-94154666D01*
X110275714Y-94059428D01*
X110275714Y-93868952D01*
X110323333Y-93773714D01*
X109942380Y-92249904D02*
X110656666Y-92249904D01*
X110799523Y-92297523D01*
X110894761Y-92392761D01*
X110942380Y-92535619D01*
X110942380Y-92630857D01*
X110942380Y-91630857D02*
X110894761Y-91726095D01*
X110847142Y-91773714D01*
X110751904Y-91821333D01*
X110466190Y-91821333D01*
X110370952Y-91773714D01*
X110323333Y-91726095D01*
X110275714Y-91630857D01*
X110275714Y-91488000D01*
X110323333Y-91392761D01*
X110370952Y-91345142D01*
X110466190Y-91297523D01*
X110751904Y-91297523D01*
X110847142Y-91345142D01*
X110894761Y-91392761D01*
X110942380Y-91488000D01*
X110942380Y-91630857D01*
X110275714Y-90964190D02*
X110942380Y-90726095D01*
X110275714Y-90488000D02*
X110942380Y-90726095D01*
X111180476Y-90821333D01*
X111228095Y-90868952D01*
X111275714Y-90964190D01*
X110894761Y-90154666D02*
X110942380Y-90059428D01*
X110942380Y-89868952D01*
X110894761Y-89773714D01*
X110799523Y-89726095D01*
X110751904Y-89726095D01*
X110656666Y-89773714D01*
X110609047Y-89868952D01*
X110609047Y-90011809D01*
X110561428Y-90107047D01*
X110466190Y-90154666D01*
X110418571Y-90154666D01*
X110323333Y-90107047D01*
X110275714Y-90011809D01*
X110275714Y-89868952D01*
X110323333Y-89773714D01*
X110275714Y-89440380D02*
X110275714Y-89059428D01*
X109942380Y-89297523D02*
X110799523Y-89297523D01*
X110894761Y-89249904D01*
X110942380Y-89154666D01*
X110942380Y-89059428D01*
X110942380Y-88726095D02*
X110275714Y-88726095D01*
X109942380Y-88726095D02*
X109990000Y-88773714D01*
X110037619Y-88726095D01*
X109990000Y-88678476D01*
X109942380Y-88726095D01*
X110037619Y-88726095D01*
X110894761Y-87821333D02*
X110942380Y-87916571D01*
X110942380Y-88107047D01*
X110894761Y-88202285D01*
X110847142Y-88249904D01*
X110751904Y-88297523D01*
X110466190Y-88297523D01*
X110370952Y-88249904D01*
X110323333Y-88202285D01*
X110275714Y-88107047D01*
X110275714Y-87916571D01*
X110323333Y-87821333D01*
X110942380Y-87392761D02*
X109942380Y-87392761D01*
X110561428Y-87297523D02*
X110942380Y-87011809D01*
X110275714Y-87011809D02*
X110656666Y-87392761D01*
X75699928Y-52030595D02*
X75652309Y-52173452D01*
X75604690Y-52221071D01*
X75509452Y-52268690D01*
X75366595Y-52268690D01*
X75271357Y-52221071D01*
X75223738Y-52173452D01*
X75176119Y-52078214D01*
X75176119Y-51697261D01*
X76176119Y-51697261D01*
X76176119Y-52030595D01*
X76128500Y-52125833D01*
X76080880Y-52173452D01*
X75985642Y-52221071D01*
X75890404Y-52221071D01*
X75795166Y-52173452D01*
X75747547Y-52125833D01*
X75699928Y-52030595D01*
X75699928Y-51697261D01*
X75842785Y-53125833D02*
X75176119Y-53125833D01*
X75842785Y-52697261D02*
X75318976Y-52697261D01*
X75223738Y-52744880D01*
X75176119Y-52840119D01*
X75176119Y-52982976D01*
X75223738Y-53078214D01*
X75271357Y-53125833D01*
X75842785Y-53459166D02*
X75842785Y-53840119D01*
X76176119Y-53602023D02*
X75318976Y-53602023D01*
X75223738Y-53649642D01*
X75176119Y-53744880D01*
X75176119Y-53840119D01*
X75842785Y-54030595D02*
X75842785Y-54411547D01*
X76176119Y-54173452D02*
X75318976Y-54173452D01*
X75223738Y-54221071D01*
X75176119Y-54316309D01*
X75176119Y-54411547D01*
X75176119Y-54887738D02*
X75223738Y-54792500D01*
X75271357Y-54744880D01*
X75366595Y-54697261D01*
X75652309Y-54697261D01*
X75747547Y-54744880D01*
X75795166Y-54792500D01*
X75842785Y-54887738D01*
X75842785Y-55030595D01*
X75795166Y-55125833D01*
X75747547Y-55173452D01*
X75652309Y-55221071D01*
X75366595Y-55221071D01*
X75271357Y-55173452D01*
X75223738Y-55125833D01*
X75176119Y-55030595D01*
X75176119Y-54887738D01*
X75842785Y-55649642D02*
X75176119Y-55649642D01*
X75747547Y-55649642D02*
X75795166Y-55697261D01*
X75842785Y-55792500D01*
X75842785Y-55935357D01*
X75795166Y-56030595D01*
X75699928Y-56078214D01*
X75176119Y-56078214D01*
X75223738Y-56506785D02*
X75176119Y-56602023D01*
X75176119Y-56792500D01*
X75223738Y-56887738D01*
X75318976Y-56935357D01*
X75366595Y-56935357D01*
X75461833Y-56887738D01*
X75509452Y-56792500D01*
X75509452Y-56649642D01*
X75557071Y-56554404D01*
X75652309Y-56506785D01*
X75699928Y-56506785D01*
X75795166Y-56554404D01*
X75842785Y-56649642D01*
X75842785Y-56792500D01*
X75795166Y-56887738D01*
X47189333Y-122961380D02*
X47760761Y-122961380D01*
X47475047Y-123961380D02*
X47475047Y-122961380D01*
X47951238Y-122961380D02*
X48522666Y-122961380D01*
X48236952Y-123961380D02*
X48236952Y-122961380D01*
X48856000Y-123961380D02*
X48856000Y-122961380D01*
X49427428Y-123961380D02*
X48998857Y-123389952D01*
X49427428Y-122961380D02*
X48856000Y-123532809D01*
X50284571Y-123294714D02*
X50284571Y-123961380D01*
X50046476Y-122913761D02*
X49808380Y-123628047D01*
X50427428Y-123628047D01*
X51332190Y-123961380D02*
X50760761Y-123961380D01*
X51046476Y-123961380D02*
X51046476Y-122961380D01*
X50951238Y-123104238D01*
X50856000Y-123199476D01*
X50760761Y-123247095D01*
X52236952Y-122961380D02*
X51760761Y-122961380D01*
X51713142Y-123437571D01*
X51760761Y-123389952D01*
X51856000Y-123342333D01*
X52094095Y-123342333D01*
X52189333Y-123389952D01*
X52236952Y-123437571D01*
X52284571Y-123532809D01*
X52284571Y-123770904D01*
X52236952Y-123866142D01*
X52189333Y-123913761D01*
X52094095Y-123961380D01*
X51856000Y-123961380D01*
X51760761Y-123913761D01*
X51713142Y-123866142D01*
X53189333Y-122961380D02*
X52713142Y-122961380D01*
X52665523Y-123437571D01*
X52713142Y-123389952D01*
X52808380Y-123342333D01*
X53046476Y-123342333D01*
X53141714Y-123389952D01*
X53189333Y-123437571D01*
X53236952Y-123532809D01*
X53236952Y-123770904D01*
X53189333Y-123866142D01*
X53141714Y-123913761D01*
X53046476Y-123961380D01*
X52808380Y-123961380D01*
X52713142Y-123913761D01*
X52665523Y-123866142D01*
X54427428Y-123580428D02*
X55189333Y-123580428D01*
X56427428Y-123961380D02*
X56427428Y-122961380D01*
X56998857Y-123961380D01*
X56998857Y-122961380D01*
X57617904Y-123961380D02*
X57522666Y-123913761D01*
X57475047Y-123866142D01*
X57427428Y-123770904D01*
X57427428Y-123485190D01*
X57475047Y-123389952D01*
X57522666Y-123342333D01*
X57617904Y-123294714D01*
X57760761Y-123294714D01*
X57856000Y-123342333D01*
X57903619Y-123389952D01*
X57951238Y-123485190D01*
X57951238Y-123770904D01*
X57903619Y-123866142D01*
X57856000Y-123913761D01*
X57760761Y-123961380D01*
X57617904Y-123961380D01*
X58808380Y-123961380D02*
X58808380Y-122961380D01*
X58808380Y-123913761D02*
X58713142Y-123961380D01*
X58522666Y-123961380D01*
X58427428Y-123913761D01*
X58379809Y-123866142D01*
X58332190Y-123770904D01*
X58332190Y-123485190D01*
X58379809Y-123389952D01*
X58427428Y-123342333D01*
X58522666Y-123294714D01*
X58713142Y-123294714D01*
X58808380Y-123342333D01*
X59665523Y-123913761D02*
X59570285Y-123961380D01*
X59379809Y-123961380D01*
X59284571Y-123913761D01*
X59236952Y-123818523D01*
X59236952Y-123437571D01*
X59284571Y-123342333D01*
X59379809Y-123294714D01*
X59570285Y-123294714D01*
X59665523Y-123342333D01*
X59713142Y-123437571D01*
X59713142Y-123532809D01*
X59236952Y-123628047D01*
X61427428Y-123961380D02*
X60856000Y-123961380D01*
X61141714Y-123961380D02*
X61141714Y-122961380D01*
X61046476Y-123104238D01*
X60951238Y-123199476D01*
X60856000Y-123247095D01*
X47689333Y-124611380D02*
X47879809Y-124611380D01*
X47975047Y-124659000D01*
X48070285Y-124754238D01*
X48117904Y-124944714D01*
X48117904Y-125278047D01*
X48070285Y-125468523D01*
X47975047Y-125563761D01*
X47879809Y-125611380D01*
X47689333Y-125611380D01*
X47594095Y-125563761D01*
X47498857Y-125468523D01*
X47451238Y-125278047D01*
X47451238Y-124944714D01*
X47498857Y-124754238D01*
X47594095Y-124659000D01*
X47689333Y-124611380D01*
X48689333Y-125611380D02*
X48594095Y-125563761D01*
X48546476Y-125468523D01*
X48546476Y-124611380D01*
X49451238Y-125563761D02*
X49356000Y-125611380D01*
X49165523Y-125611380D01*
X49070285Y-125563761D01*
X49022666Y-125468523D01*
X49022666Y-125087571D01*
X49070285Y-124992333D01*
X49165523Y-124944714D01*
X49356000Y-124944714D01*
X49451238Y-124992333D01*
X49498857Y-125087571D01*
X49498857Y-125182809D01*
X49022666Y-125278047D01*
X50641714Y-125563761D02*
X50784571Y-125611380D01*
X51022666Y-125611380D01*
X51117904Y-125563761D01*
X51165523Y-125516142D01*
X51213142Y-125420904D01*
X51213142Y-125325666D01*
X51165523Y-125230428D01*
X51117904Y-125182809D01*
X51022666Y-125135190D01*
X50832190Y-125087571D01*
X50736952Y-125039952D01*
X50689333Y-124992333D01*
X50641714Y-124897095D01*
X50641714Y-124801857D01*
X50689333Y-124706619D01*
X50736952Y-124659000D01*
X50832190Y-124611380D01*
X51070285Y-124611380D01*
X51213142Y-124659000D01*
X51641714Y-125611380D02*
X51641714Y-124944714D01*
X51641714Y-124611380D02*
X51594095Y-124659000D01*
X51641714Y-124706619D01*
X51689333Y-124659000D01*
X51641714Y-124611380D01*
X51641714Y-124706619D01*
X52022666Y-124944714D02*
X52260761Y-125611380D01*
X52498857Y-124944714D01*
X53260761Y-125563761D02*
X53165523Y-125611380D01*
X52975047Y-125611380D01*
X52879809Y-125563761D01*
X52832190Y-125468523D01*
X52832190Y-125087571D01*
X52879809Y-124992333D01*
X52975047Y-124944714D01*
X53165523Y-124944714D01*
X53260761Y-124992333D01*
X53308380Y-125087571D01*
X53308380Y-125182809D01*
X52832190Y-125278047D01*
X53736952Y-125611380D02*
X53736952Y-124944714D01*
X53736952Y-125135190D02*
X53784571Y-125039952D01*
X53832190Y-124992333D01*
X53927428Y-124944714D01*
X54022666Y-124944714D01*
X54213142Y-124944714D02*
X54594095Y-124944714D01*
X54356000Y-124611380D02*
X54356000Y-125468523D01*
X54403619Y-125563761D01*
X54498857Y-125611380D01*
X54594095Y-125611380D01*
X55641714Y-125325666D02*
X56117904Y-125325666D01*
X55546476Y-125611380D02*
X55879809Y-124611380D01*
X56213142Y-125611380D01*
X56975047Y-125611380D02*
X56975047Y-125087571D01*
X56927428Y-124992333D01*
X56832190Y-124944714D01*
X56641714Y-124944714D01*
X56546476Y-124992333D01*
X56975047Y-125563761D02*
X56879809Y-125611380D01*
X56641714Y-125611380D01*
X56546476Y-125563761D01*
X56498857Y-125468523D01*
X56498857Y-125373285D01*
X56546476Y-125278047D01*
X56641714Y-125230428D01*
X56879809Y-125230428D01*
X56975047Y-125182809D01*
X57451238Y-125611380D02*
X57451238Y-124944714D01*
X57451238Y-125135190D02*
X57498857Y-125039952D01*
X57546476Y-124992333D01*
X57641714Y-124944714D01*
X57736952Y-124944714D01*
X58070285Y-125611380D02*
X58070285Y-124611380D01*
X58498857Y-125611380D02*
X58498857Y-125087571D01*
X58451238Y-124992333D01*
X58356000Y-124944714D01*
X58213142Y-124944714D01*
X58117904Y-124992333D01*
X58070285Y-125039952D01*
X59403619Y-125611380D02*
X59403619Y-125087571D01*
X59356000Y-124992333D01*
X59260761Y-124944714D01*
X59070285Y-124944714D01*
X58975047Y-124992333D01*
X59403619Y-125563761D02*
X59308380Y-125611380D01*
X59070285Y-125611380D01*
X58975047Y-125563761D01*
X58927428Y-125468523D01*
X58927428Y-125373285D01*
X58975047Y-125278047D01*
X59070285Y-125230428D01*
X59308380Y-125230428D01*
X59403619Y-125182809D01*
X60308380Y-124944714D02*
X60308380Y-125611380D01*
X59879809Y-124944714D02*
X59879809Y-125468523D01*
X59927428Y-125563761D01*
X60022666Y-125611380D01*
X60165523Y-125611380D01*
X60260761Y-125563761D01*
X60308380Y-125516142D01*
X61213142Y-124944714D02*
X61213142Y-125754238D01*
X61165523Y-125849476D01*
X61117904Y-125897095D01*
X61022666Y-125944714D01*
X60879809Y-125944714D01*
X60784571Y-125897095D01*
X61213142Y-125563761D02*
X61117904Y-125611380D01*
X60927428Y-125611380D01*
X60832190Y-125563761D01*
X60784571Y-125516142D01*
X60736952Y-125420904D01*
X60736952Y-125135190D01*
X60784571Y-125039952D01*
X60832190Y-124992333D01*
X60927428Y-124944714D01*
X61117904Y-124944714D01*
X61213142Y-124992333D01*
X49927428Y-126975666D02*
X50403619Y-126975666D01*
X49832190Y-127261380D02*
X50165523Y-126261380D01*
X50498857Y-127261380D01*
X51260761Y-126594714D02*
X51260761Y-127261380D01*
X50832190Y-126594714D02*
X50832190Y-127118523D01*
X50879809Y-127213761D01*
X50975047Y-127261380D01*
X51117904Y-127261380D01*
X51213142Y-127213761D01*
X51260761Y-127166142D01*
X52165523Y-127261380D02*
X52165523Y-126261380D01*
X52165523Y-127213761D02*
X52070285Y-127261380D01*
X51879809Y-127261380D01*
X51784571Y-127213761D01*
X51736952Y-127166142D01*
X51689333Y-127070904D01*
X51689333Y-126785190D01*
X51736952Y-126689952D01*
X51784571Y-126642333D01*
X51879809Y-126594714D01*
X52070285Y-126594714D01*
X52165523Y-126642333D01*
X53070285Y-126594714D02*
X53070285Y-127261380D01*
X52641714Y-126594714D02*
X52641714Y-127118523D01*
X52689333Y-127213761D01*
X52784571Y-127261380D01*
X52927428Y-127261380D01*
X53022666Y-127213761D01*
X53070285Y-127166142D01*
X53546476Y-126594714D02*
X53546476Y-127261380D01*
X53546476Y-126689952D02*
X53594095Y-126642333D01*
X53689333Y-126594714D01*
X53832190Y-126594714D01*
X53927428Y-126642333D01*
X53975047Y-126737571D01*
X53975047Y-127261380D01*
X55165523Y-126975666D02*
X55641714Y-126975666D01*
X55070285Y-127261380D02*
X55403619Y-126261380D01*
X55736952Y-127261380D01*
X56022666Y-127213761D02*
X56117904Y-127261380D01*
X56308380Y-127261380D01*
X56403619Y-127213761D01*
X56451238Y-127118523D01*
X56451238Y-127070904D01*
X56403619Y-126975666D01*
X56308380Y-126928047D01*
X56165523Y-126928047D01*
X56070285Y-126880428D01*
X56022666Y-126785190D01*
X56022666Y-126737571D01*
X56070285Y-126642333D01*
X56165523Y-126594714D01*
X56308380Y-126594714D01*
X56403619Y-126642333D01*
X57308380Y-127261380D02*
X57308380Y-126261380D01*
X57308380Y-127213761D02*
X57213142Y-127261380D01*
X57022666Y-127261380D01*
X56927428Y-127213761D01*
X56879809Y-127166142D01*
X56832190Y-127070904D01*
X56832190Y-126785190D01*
X56879809Y-126689952D01*
X56927428Y-126642333D01*
X57022666Y-126594714D01*
X57213142Y-126594714D01*
X57308380Y-126642333D01*
X58213142Y-127261380D02*
X58213142Y-126737571D01*
X58165523Y-126642333D01*
X58070285Y-126594714D01*
X57879809Y-126594714D01*
X57784571Y-126642333D01*
X58213142Y-127213761D02*
X58117904Y-127261380D01*
X57879809Y-127261380D01*
X57784571Y-127213761D01*
X57736952Y-127118523D01*
X57736952Y-127023285D01*
X57784571Y-126928047D01*
X57879809Y-126880428D01*
X58117904Y-126880428D01*
X58213142Y-126832809D01*
X58832190Y-127261380D02*
X58736952Y-127213761D01*
X58689333Y-127118523D01*
X58689333Y-126261380D01*
X44951238Y-128387571D02*
X45284571Y-128387571D01*
X45427428Y-128911380D02*
X44951238Y-128911380D01*
X44951238Y-127911380D01*
X45427428Y-127911380D01*
X45856000Y-128911380D02*
X45856000Y-128244714D01*
X45856000Y-127911380D02*
X45808380Y-127959000D01*
X45856000Y-128006619D01*
X45903619Y-127959000D01*
X45856000Y-127911380D01*
X45856000Y-128006619D01*
X46332190Y-128244714D02*
X46332190Y-128911380D01*
X46332190Y-128339952D02*
X46379809Y-128292333D01*
X46475047Y-128244714D01*
X46617904Y-128244714D01*
X46713142Y-128292333D01*
X46760761Y-128387571D01*
X46760761Y-128911380D01*
X47665523Y-128911380D02*
X47665523Y-128387571D01*
X47617904Y-128292333D01*
X47522666Y-128244714D01*
X47332190Y-128244714D01*
X47236952Y-128292333D01*
X47665523Y-128863761D02*
X47570285Y-128911380D01*
X47332190Y-128911380D01*
X47236952Y-128863761D01*
X47189333Y-128768523D01*
X47189333Y-128673285D01*
X47236952Y-128578047D01*
X47332190Y-128530428D01*
X47570285Y-128530428D01*
X47665523Y-128482809D01*
X48141714Y-128911380D02*
X48141714Y-128244714D01*
X48141714Y-128435190D02*
X48189333Y-128339952D01*
X48236952Y-128292333D01*
X48332190Y-128244714D01*
X48427428Y-128244714D01*
X49522666Y-128911380D02*
X49522666Y-127911380D01*
X49856000Y-128625666D01*
X50189333Y-127911380D01*
X50189333Y-128911380D01*
X51094095Y-128911380D02*
X51094095Y-128387571D01*
X51046476Y-128292333D01*
X50951238Y-128244714D01*
X50760761Y-128244714D01*
X50665523Y-128292333D01*
X51094095Y-128863761D02*
X50998857Y-128911380D01*
X50760761Y-128911380D01*
X50665523Y-128863761D01*
X50617904Y-128768523D01*
X50617904Y-128673285D01*
X50665523Y-128578047D01*
X50760761Y-128530428D01*
X50998857Y-128530428D01*
X51094095Y-128482809D01*
X51570285Y-128911380D02*
X51570285Y-128244714D01*
X51570285Y-128435190D02*
X51617904Y-128339952D01*
X51665523Y-128292333D01*
X51760761Y-128244714D01*
X51856000Y-128244714D01*
X52141714Y-128863761D02*
X52236952Y-128911380D01*
X52427428Y-128911380D01*
X52522666Y-128863761D01*
X52570285Y-128768523D01*
X52570285Y-128720904D01*
X52522666Y-128625666D01*
X52427428Y-128578047D01*
X52284571Y-128578047D01*
X52189333Y-128530428D01*
X52141714Y-128435190D01*
X52141714Y-128387571D01*
X52189333Y-128292333D01*
X52284571Y-128244714D01*
X52427428Y-128244714D01*
X52522666Y-128292333D01*
X52856000Y-128244714D02*
X53236952Y-128244714D01*
X52998857Y-127911380D02*
X52998857Y-128768523D01*
X53046476Y-128863761D01*
X53141714Y-128911380D01*
X53236952Y-128911380D01*
X53570285Y-128911380D02*
X53570285Y-128244714D01*
X53570285Y-128435190D02*
X53617904Y-128339952D01*
X53665523Y-128292333D01*
X53760761Y-128244714D01*
X53856000Y-128244714D01*
X54617904Y-128911380D02*
X54617904Y-128387571D01*
X54570285Y-128292333D01*
X54475047Y-128244714D01*
X54284571Y-128244714D01*
X54189333Y-128292333D01*
X54617904Y-128863761D02*
X54522666Y-128911380D01*
X54284571Y-128911380D01*
X54189333Y-128863761D01*
X54141714Y-128768523D01*
X54141714Y-128673285D01*
X54189333Y-128578047D01*
X54284571Y-128530428D01*
X54522666Y-128530428D01*
X54617904Y-128482809D01*
X55094095Y-128244714D02*
X55094095Y-128911380D01*
X55094095Y-128339952D02*
X55141714Y-128292333D01*
X55236952Y-128244714D01*
X55379809Y-128244714D01*
X55475047Y-128292333D01*
X55522666Y-128387571D01*
X55522666Y-128911380D01*
X56427428Y-128911380D02*
X56427428Y-127911380D01*
X56427428Y-128863761D02*
X56332190Y-128911380D01*
X56141714Y-128911380D01*
X56046476Y-128863761D01*
X55998857Y-128816142D01*
X55951238Y-128720904D01*
X55951238Y-128435190D01*
X55998857Y-128339952D01*
X56046476Y-128292333D01*
X56141714Y-128244714D01*
X56332190Y-128244714D01*
X56427428Y-128292333D01*
X57284571Y-128863761D02*
X57189333Y-128911380D01*
X56998857Y-128911380D01*
X56903619Y-128863761D01*
X56856000Y-128768523D01*
X56856000Y-128387571D01*
X56903619Y-128292333D01*
X56998857Y-128244714D01*
X57189333Y-128244714D01*
X57284571Y-128292333D01*
X57332190Y-128387571D01*
X57332190Y-128482809D01*
X56856000Y-128578047D01*
X57760761Y-128911380D02*
X57760761Y-128244714D01*
X57760761Y-128435190D02*
X57808380Y-128339952D01*
X57856000Y-128292333D01*
X57951238Y-128244714D01*
X58046476Y-128244714D01*
X59332190Y-127911380D02*
X59522666Y-127911380D01*
X59617904Y-127959000D01*
X59713142Y-128054238D01*
X59760761Y-128244714D01*
X59760761Y-128578047D01*
X59713142Y-128768523D01*
X59617904Y-128863761D01*
X59522666Y-128911380D01*
X59332190Y-128911380D01*
X59236952Y-128863761D01*
X59141714Y-128768523D01*
X59094095Y-128578047D01*
X59094095Y-128244714D01*
X59141714Y-128054238D01*
X59236952Y-127959000D01*
X59332190Y-127911380D01*
X60189333Y-128911380D02*
X60189333Y-128244714D01*
X60189333Y-128339952D02*
X60236952Y-128292333D01*
X60332190Y-128244714D01*
X60475047Y-128244714D01*
X60570285Y-128292333D01*
X60617904Y-128387571D01*
X60617904Y-128911380D01*
X60617904Y-128387571D02*
X60665523Y-128292333D01*
X60760761Y-128244714D01*
X60903619Y-128244714D01*
X60998857Y-128292333D01*
X61046476Y-128387571D01*
X61046476Y-128911380D01*
X61951238Y-128911380D02*
X61951238Y-128387571D01*
X61903619Y-128292333D01*
X61808380Y-128244714D01*
X61617904Y-128244714D01*
X61522666Y-128292333D01*
X61951238Y-128863761D02*
X61856000Y-128911380D01*
X61617904Y-128911380D01*
X61522666Y-128863761D01*
X61475047Y-128768523D01*
X61475047Y-128673285D01*
X61522666Y-128578047D01*
X61617904Y-128530428D01*
X61856000Y-128530428D01*
X61951238Y-128482809D01*
X62427428Y-128244714D02*
X62427428Y-128911380D01*
X62427428Y-128339952D02*
X62475047Y-128292333D01*
X62570285Y-128244714D01*
X62713142Y-128244714D01*
X62808380Y-128292333D01*
X62856000Y-128387571D01*
X62856000Y-128911380D01*
X63760761Y-128244714D02*
X63760761Y-129054238D01*
X63713142Y-129149476D01*
X63665523Y-129197095D01*
X63570285Y-129244714D01*
X63427428Y-129244714D01*
X63332190Y-129197095D01*
X63760761Y-128863761D02*
X63665523Y-128911380D01*
X63475047Y-128911380D01*
X63379809Y-128863761D01*
X63332190Y-128816142D01*
X63284571Y-128720904D01*
X63284571Y-128435190D01*
X63332190Y-128339952D01*
X63379809Y-128292333D01*
X63475047Y-128244714D01*
X63665523Y-128244714D01*
X63760761Y-128292333D01*
D12*
X42240000Y-31826000D02*
X142240000Y-31826000D01*
X42240000Y-31826000D02*
X42240000Y-131826000D01*
X142240000Y-31826000D02*
X142240000Y-131826000D01*
X42240000Y-131826000D02*
X142240000Y-131826000D01*
D10*
X65730619Y-43632380D02*
X65397285Y-43156190D01*
X65159190Y-43632380D02*
X65159190Y-42632380D01*
X65540142Y-42632380D01*
X65635380Y-42680000D01*
X65683000Y-42727619D01*
X65730619Y-42822857D01*
X65730619Y-42965714D01*
X65683000Y-43060952D01*
X65635380Y-43108571D01*
X65540142Y-43156190D01*
X65159190Y-43156190D01*
X66159190Y-43108571D02*
X66492523Y-43108571D01*
X66635380Y-43632380D02*
X66159190Y-43632380D01*
X66159190Y-42632380D01*
X66635380Y-42632380D01*
X67016333Y-43584761D02*
X67159190Y-43632380D01*
X67397285Y-43632380D01*
X67492523Y-43584761D01*
X67540142Y-43537142D01*
X67587761Y-43441904D01*
X67587761Y-43346666D01*
X67540142Y-43251428D01*
X67492523Y-43203809D01*
X67397285Y-43156190D01*
X67206809Y-43108571D01*
X67111571Y-43060952D01*
X67063952Y-43013333D01*
X67016333Y-42918095D01*
X67016333Y-42822857D01*
X67063952Y-42727619D01*
X67111571Y-42680000D01*
X67206809Y-42632380D01*
X67444904Y-42632380D01*
X67587761Y-42680000D01*
X68016333Y-43108571D02*
X68349666Y-43108571D01*
X68492523Y-43632380D02*
X68016333Y-43632380D01*
X68016333Y-42632380D01*
X68492523Y-42632380D01*
X68778238Y-42632380D02*
X69349666Y-42632380D01*
X69063952Y-43632380D02*
X69063952Y-42632380D01*
D11*
X49121285Y-103203571D02*
X49049857Y-103132142D01*
X48978428Y-102917857D01*
X48978428Y-102775000D01*
X49049857Y-102560714D01*
X49192714Y-102417857D01*
X49335571Y-102346428D01*
X49621285Y-102275000D01*
X49835571Y-102275000D01*
X50121285Y-102346428D01*
X50264142Y-102417857D01*
X50407000Y-102560714D01*
X50478428Y-102775000D01*
X50478428Y-102917857D01*
X50407000Y-103132142D01*
X50335571Y-103203571D01*
X49407000Y-103775000D02*
X49407000Y-104489285D01*
X48978428Y-103632142D02*
X50478428Y-104132142D01*
X48978428Y-104632142D01*
X48978428Y-105132142D02*
X50478428Y-105132142D01*
X48978428Y-105989285D01*
X50478428Y-105989285D01*
X48978428Y-107417857D02*
X48978428Y-106703571D01*
X50478428Y-106703571D01*
X49248285Y-85626000D02*
X49176857Y-85554571D01*
X49105428Y-85340285D01*
X49105428Y-85197428D01*
X49176857Y-84983142D01*
X49319714Y-84840285D01*
X49462571Y-84768857D01*
X49748285Y-84697428D01*
X49962571Y-84697428D01*
X50248285Y-84768857D01*
X50391142Y-84840285D01*
X50534000Y-84983142D01*
X50605428Y-85197428D01*
X50605428Y-85340285D01*
X50534000Y-85554571D01*
X50462571Y-85626000D01*
X49534000Y-86197428D02*
X49534000Y-86911714D01*
X49105428Y-86054571D02*
X50605428Y-86554571D01*
X49105428Y-87054571D01*
X49105428Y-87554571D02*
X50605428Y-87554571D01*
X49105428Y-88411714D01*
X50605428Y-88411714D01*
X49105428Y-89126000D02*
X50605428Y-89126000D01*
X49891142Y-89126000D02*
X49891142Y-89983142D01*
X49105428Y-89983142D02*
X50605428Y-89983142D01*
X119042571Y-128603142D02*
X119042571Y-129460285D01*
X119042571Y-129031714D02*
X117542571Y-129031714D01*
X117756857Y-129174571D01*
X117899714Y-129317428D01*
X117971142Y-129460285D01*
X117685428Y-128031714D02*
X117614000Y-127960285D01*
X117542571Y-127817428D01*
X117542571Y-127460285D01*
X117614000Y-127317428D01*
X117685428Y-127246000D01*
X117828285Y-127174571D01*
X117971142Y-127174571D01*
X118185428Y-127246000D01*
X119042571Y-128103142D01*
X119042571Y-127174571D01*
X117542571Y-126746000D02*
X119042571Y-126246000D01*
X117542571Y-125746000D01*
X118471142Y-125246000D02*
X118471142Y-124103142D01*
X119042571Y-124674571D02*
X117899714Y-124674571D01*
D12*
X70746252Y-48629500D02*
X70223748Y-48629500D01*
X70746252Y-50049500D02*
X70223748Y-50049500D01*
X70746252Y-46470500D02*
X70223748Y-46470500D01*
X70746252Y-47890500D02*
X70223748Y-47890500D01*
X70746252Y-43867000D02*
X70223748Y-43867000D01*
X70746252Y-45287000D02*
X70223748Y-45287000D01*
X76827748Y-39953000D02*
X77350252Y-39953000D01*
X76827748Y-38533000D02*
X77350252Y-38533000D01*
X141140000Y-105029000D02*
G75*
G03X130640000Y-105029000I-5250000J0D01*
G01*
X130640000Y-119789000D02*
G75*
G03X141140000Y-119789000I5250000J0D01*
G01*
X141140000Y-120029000D02*
X141140000Y-105029000D01*
X130640000Y-105029000D02*
X130640000Y-120029000D01*
X75625000Y-51114000D02*
X74295000Y-51114000D01*
X75625000Y-49784000D02*
X75625000Y-51114000D01*
X75625000Y-48514000D02*
X72965000Y-48514000D01*
X72965000Y-48514000D02*
X72965000Y-40834000D01*
X75625000Y-48514000D02*
X75625000Y-40834000D01*
X75625000Y-40834000D02*
X72965000Y-40834000D01*
X120096000Y-132927000D02*
X120596000Y-132927000D01*
X120096000Y-132187000D02*
X120096000Y-132927000D01*
X126660000Y-127948000D02*
X126553000Y-128055000D01*
X129245000Y-125363000D02*
X128854000Y-125753000D01*
X126869000Y-128210000D02*
X126788000Y-128291000D01*
X129480000Y-125598000D02*
X129130000Y-125948000D01*
X124165000Y-125363000D02*
X123949000Y-125578000D01*
X130616000Y-121567000D02*
X130616000Y-132687000D01*
X120336000Y-121567000D02*
X120336000Y-132687000D01*
X120336000Y-132687000D02*
X130616000Y-132687000D01*
X120336000Y-121567000D02*
X130616000Y-121567000D01*
X120336000Y-123427000D02*
X130616000Y-123427000D01*
X120336000Y-129627000D02*
X130616000Y-129627000D01*
X120336000Y-132127000D02*
X130616000Y-132127000D01*
X129946000Y-126827000D02*
G75*
G03X129946000Y-126827000I-1930000J0D01*
G01*
X122969269Y-128757336D02*
G75*
G02X122339000Y-128663000I-33269J1930336D01*
G01*
X121414355Y-128015175D02*
G75*
G02X121415000Y-125638000I1521645J1188175D01*
G01*
X121435683Y-125612391D02*
G75*
G02X124436000Y-125612000I1500317J-1214609D01*
G01*
X124457645Y-125638825D02*
G75*
G02X124457000Y-128016000I-1521645J-1188175D01*
G01*
X123532403Y-128662539D02*
G75*
G02X122936000Y-128757000I-596403J1835539D01*
G01*
X133544000Y-57598000D02*
X134874000Y-57598000D01*
X133544000Y-58928000D02*
X133544000Y-57598000D01*
X133544000Y-60198000D02*
X136204000Y-60198000D01*
X136204000Y-60198000D02*
X136204000Y-83118000D01*
X133544000Y-60198000D02*
X133544000Y-83118000D01*
X133544000Y-83118000D02*
X136204000Y-83118000D01*
X48556000Y-90632000D02*
X48556000Y-91132000D01*
X49296000Y-90632000D02*
X48556000Y-90632000D01*
X53535000Y-97196000D02*
X53428000Y-97089000D01*
X56120000Y-99781000D02*
X55730000Y-99390000D01*
X53273000Y-97405000D02*
X53192000Y-97324000D01*
X55885000Y-100016000D02*
X55535000Y-99666000D01*
X56120000Y-94701000D02*
X55905000Y-94485000D01*
X59916000Y-101152000D02*
X48796000Y-101152000D01*
X59916000Y-90872000D02*
X48796000Y-90872000D01*
X48796000Y-90872000D02*
X48796000Y-101152000D01*
X59916000Y-90872000D02*
X59916000Y-101152000D01*
X58056000Y-90872000D02*
X58056000Y-101152000D01*
X51856000Y-90872000D02*
X51856000Y-101152000D01*
X49356000Y-90872000D02*
X49356000Y-101152000D01*
X56586000Y-98552000D02*
G75*
G03X56586000Y-98552000I-1930000J0D01*
G01*
X52725664Y-93505269D02*
G75*
G02X52820000Y-92875000I1930336J33269D01*
G01*
X53467825Y-91950355D02*
G75*
G02X55845000Y-91951000I1188175J-1521645D01*
G01*
X55870609Y-91971683D02*
G75*
G02X55871000Y-94972000I-1214609J-1500317D01*
G01*
X55844175Y-94993645D02*
G75*
G02X53467000Y-94993000I-1188175J1521645D01*
G01*
X52820461Y-94068403D02*
G75*
G02X52726000Y-93472000I1835539J596403D01*
G01*
X111573000Y-86681000D02*
X112903000Y-86681000D01*
X111573000Y-88011000D02*
X111573000Y-86681000D01*
X111573000Y-89281000D02*
X114233000Y-89281000D01*
X114233000Y-89281000D02*
X114233000Y-96961000D01*
X111573000Y-89281000D02*
X111573000Y-96961000D01*
X111573000Y-96961000D02*
X114233000Y-96961000D01*
X63044000Y-95750748D02*
X63044000Y-96273252D01*
X64464000Y-95750748D02*
X64464000Y-96273252D01*
X125392000Y-38234000D02*
X114892000Y-38234000D01*
X125392000Y-74034000D02*
X125392000Y-38234000D01*
X114892000Y-74034000D02*
X125392000Y-74034000D01*
X114892000Y-38234000D02*
X114892000Y-74034000D01*
X122392000Y-38294000D02*
X121142000Y-38294000D01*
X122392000Y-73974000D02*
X122392000Y-38294000D01*
X117892000Y-73974000D02*
X122392000Y-73974000D01*
X117892000Y-38294000D02*
X117892000Y-73974000D01*
X119142000Y-38294000D02*
X117892000Y-38294000D01*
X121142000Y-38294000D02*
G75*
G02X119142000Y-38294000I-1000000J0D01*
G01*
X110660000Y-40774000D02*
X100160000Y-40774000D01*
X110660000Y-66414000D02*
X110660000Y-40774000D01*
X100160000Y-66414000D02*
X110660000Y-66414000D01*
X100160000Y-40774000D02*
X100160000Y-66414000D01*
X107660000Y-40834000D02*
X106410000Y-40834000D01*
X107660000Y-66354000D02*
X107660000Y-40834000D01*
X103160000Y-66354000D02*
X107660000Y-66354000D01*
X103160000Y-40834000D02*
X103160000Y-66354000D01*
X104410000Y-40834000D02*
X103160000Y-40834000D01*
X106410000Y-40834000D02*
G75*
G02X104410000Y-40834000I-1000000J0D01*
G01*
X51547000Y-65216000D02*
G75*
G03X46497000Y-65216000I-2525000J0D01*
G01*
X51547000Y-71616000D02*
G75*
G02X46497000Y-71616000I-2525000J0D01*
G01*
X51547000Y-71616000D02*
X51547000Y-65216000D01*
X46497000Y-71616000D02*
X46497000Y-65216000D01*
X66309000Y-90232000D02*
G75*
G03X71359000Y-90232000I2525000J0D01*
G01*
X66309000Y-83832000D02*
G75*
G02X71359000Y-83832000I2525000J0D01*
G01*
X66309000Y-83832000D02*
X66309000Y-90232000D01*
X71359000Y-83832000D02*
X71359000Y-90232000D01*
X125519000Y-81541000D02*
X115019000Y-81541000D01*
X125519000Y-107181000D02*
X125519000Y-81541000D01*
X115019000Y-107181000D02*
X125519000Y-107181000D01*
X115019000Y-81541000D02*
X115019000Y-107181000D01*
X122519000Y-81601000D02*
X121269000Y-81601000D01*
X122519000Y-107121000D02*
X122519000Y-81601000D01*
X118019000Y-107121000D02*
X122519000Y-107121000D01*
X118019000Y-81601000D02*
X118019000Y-107121000D01*
X119269000Y-81601000D02*
X118019000Y-81601000D01*
X121269000Y-81601000D02*
G75*
G02X119269000Y-81601000I-1000000J0D01*
G01*
X86988000Y-109517000D02*
X86988000Y-99017000D01*
X61348000Y-109517000D02*
X86988000Y-109517000D01*
X61348000Y-99017000D02*
X61348000Y-109517000D01*
X86988000Y-99017000D02*
X61348000Y-99017000D01*
X86928000Y-106517000D02*
X86928000Y-105267000D01*
X61408000Y-106517000D02*
X86928000Y-106517000D01*
X61408000Y-102017000D02*
X61408000Y-106517000D01*
X86928000Y-102017000D02*
X61408000Y-102017000D01*
X86928000Y-103267000D02*
X86928000Y-102017000D01*
X86928000Y-105267000D02*
G75*
G02X86928000Y-103267000I0J1000000D01*
G01*
X65194000Y-78112000D02*
X54694000Y-78112000D01*
X65194000Y-88512000D02*
X65194000Y-78112000D01*
X54694000Y-88512000D02*
X65194000Y-88512000D01*
X54694000Y-78112000D02*
X54694000Y-88512000D01*
X62194000Y-78172000D02*
X60944000Y-78172000D01*
X62194000Y-88452000D02*
X62194000Y-78172000D01*
X57694000Y-88452000D02*
X62194000Y-88452000D01*
X57694000Y-78172000D02*
X57694000Y-88452000D01*
X58944000Y-78172000D02*
X57694000Y-78172000D01*
X60944000Y-78172000D02*
G75*
G02X58944000Y-78172000I-1000000J0D01*
G01*
X65448000Y-50934000D02*
X54948000Y-50934000D01*
X65448000Y-74034000D02*
X65448000Y-50934000D01*
X54948000Y-74034000D02*
X65448000Y-74034000D01*
X54948000Y-50934000D02*
X54948000Y-74034000D01*
X62448000Y-50994000D02*
X61198000Y-50994000D01*
X62448000Y-73974000D02*
X62448000Y-50994000D01*
X57948000Y-73974000D02*
X62448000Y-73974000D01*
X57948000Y-50994000D02*
X57948000Y-73974000D01*
X59198000Y-50994000D02*
X57948000Y-50994000D01*
X61198000Y-50994000D02*
G75*
G02X59198000Y-50994000I-1000000J0D01*
G01*
X107866000Y-81541000D02*
X97366000Y-81541000D01*
X107866000Y-107181000D02*
X107866000Y-81541000D01*
X97366000Y-107181000D02*
X107866000Y-107181000D01*
X97366000Y-81541000D02*
X97366000Y-107181000D01*
X104866000Y-81601000D02*
X103616000Y-81601000D01*
X104866000Y-107121000D02*
X104866000Y-81601000D01*
X100366000Y-107121000D02*
X104866000Y-107121000D01*
X100366000Y-81601000D02*
X100366000Y-107121000D01*
X101616000Y-81601000D02*
X100366000Y-81601000D01*
X103616000Y-81601000D02*
G75*
G02X101616000Y-81601000I-1000000J0D01*
G01*
X94294000Y-40774000D02*
X76394000Y-40774000D01*
X94294000Y-91814000D02*
X94294000Y-40774000D01*
X76394000Y-91814000D02*
X94294000Y-91814000D01*
X76394000Y-40774000D02*
X76394000Y-91814000D01*
X91804000Y-40834000D02*
X86344000Y-40834000D01*
X91804000Y-91754000D02*
X91804000Y-40834000D01*
X78884000Y-91754000D02*
X91804000Y-91754000D01*
X78884000Y-40834000D02*
X78884000Y-91754000D01*
X84344000Y-40834000D02*
X78884000Y-40834000D01*
X86344000Y-40834000D02*
G75*
G02X84344000Y-40834000I-1000000J0D01*
G01*
X113164000Y-117348000D02*
X110624000Y-117348000D01*
X113164000Y-114808000D02*
X110624000Y-114808000D01*
X113164000Y-112268000D02*
X110624000Y-112268000D01*
X129054000Y-119928000D02*
X113164000Y-119928000D01*
X129054000Y-109688000D02*
X113164000Y-109688000D01*
X129054000Y-109688000D02*
X129054000Y-119928000D01*
X113164000Y-109688000D02*
X113164000Y-119928000D01*
X70758000Y-38814000D02*
X70758000Y-37314000D01*
X69508000Y-34814000D02*
X65008000Y-34814000D01*
X63758000Y-37314000D02*
X63758000Y-38814000D01*
X65008000Y-41314000D02*
X69508000Y-41314000D01*
X65584000Y-78224748D02*
X65584000Y-78747252D01*
X67004000Y-78224748D02*
X67004000Y-78747252D01*
X67362000Y-51808748D02*
X67362000Y-52331252D01*
X68782000Y-51808748D02*
X68782000Y-52331252D01*
X67048748Y-55574000D02*
X67571252Y-55574000D01*
X67048748Y-54154000D02*
X67571252Y-54154000D01*
X82034748Y-35381000D02*
X82557252Y-35381000D01*
X82034748Y-33961000D02*
X82557252Y-33961000D01*
X77223252Y-36247000D02*
X76700748Y-36247000D01*
X77223252Y-37667000D02*
X76700748Y-37667000D01*
X82423000Y-118439675D02*
X82173000Y-118006662D01*
X82673000Y-118006662D02*
X82423000Y-118439675D01*
X82173000Y-118006662D02*
X82673000Y-118006662D01*
X85493000Y-127541000D02*
X85493000Y-131641000D01*
X83483000Y-127541000D02*
X85493000Y-127541000D01*
X83483000Y-118701000D02*
X83483000Y-127541000D01*
X70283000Y-118701000D02*
X83483000Y-118701000D01*
X70283000Y-127541000D02*
X70283000Y-118701000D01*
X68273000Y-127541000D02*
X70283000Y-127541000D01*
X68273000Y-131641000D02*
X68273000Y-127541000D01*
X92952000Y-131544000D02*
X92952000Y-129004000D01*
X92952000Y-131544000D02*
X95492000Y-131544000D01*
X93202000Y-131294000D02*
X93202000Y-121944000D01*
X114062000Y-131294000D02*
X93202000Y-131294000D01*
X114062000Y-121944000D02*
X114062000Y-131294000D01*
X93202000Y-121944000D02*
X114062000Y-121944000D01*
X69144000Y-51988000D02*
X69144000Y-54848000D01*
X71064000Y-51988000D02*
X69144000Y-51988000D01*
X71064000Y-54848000D02*
X71064000Y-51988000D01*
X69394000Y-57641748D02*
X69394000Y-58164252D01*
X70814000Y-57641748D02*
X70814000Y-58164252D01*
X49732000Y-76588252D02*
X49732000Y-76065748D01*
X48312000Y-76588252D02*
X48312000Y-76065748D01*
X49732000Y-60713252D02*
X49732000Y-60190748D01*
X48312000Y-60713252D02*
X48312000Y-60190748D01*
X102989748Y-69671000D02*
X103512252Y-69671000D01*
X102989748Y-68251000D02*
X103512252Y-68251000D01*
X108719252Y-37771000D02*
X108196748Y-37771000D01*
X108719252Y-39191000D02*
X108196748Y-39191000D01*
X71068000Y-96400252D02*
X71068000Y-95877748D01*
X69648000Y-96400252D02*
X69648000Y-95877748D01*
X64508748Y-49986000D02*
X65031252Y-49986000D01*
X64508748Y-48566000D02*
X65031252Y-48566000D01*
X103131252Y-118924000D02*
X102608748Y-118924000D01*
X103131252Y-120344000D02*
X102608748Y-120344000D01*
X53034000Y-83573252D02*
X53034000Y-83050748D01*
X51614000Y-83573252D02*
X51614000Y-83050748D01*
X123705252Y-35231000D02*
X123182748Y-35231000D01*
X123705252Y-36651000D02*
X123182748Y-36651000D01*
X105124000Y-113772000D02*
G75*
G03X105124000Y-113772000I-3270000J0D01*
G01*
X128091000Y-79948252D02*
X128091000Y-79425748D01*
X126671000Y-79948252D02*
X126671000Y-79425748D01*
X73458000Y-83558748D02*
X73458000Y-84081252D01*
X74878000Y-83558748D02*
X74878000Y-84081252D01*
X73458000Y-89654748D02*
X73458000Y-90177252D01*
X74878000Y-89654748D02*
X74878000Y-90177252D01*
X81780748Y-38937000D02*
X82303252Y-38937000D01*
X81780748Y-37517000D02*
X82303252Y-37517000D01*
X97020748Y-39826000D02*
X97543252Y-39826000D01*
X97020748Y-38406000D02*
X97543252Y-38406000D01*
X105671252Y-78538000D02*
X105148748Y-78538000D01*
X105671252Y-79958000D02*
X105148748Y-79958000D01*
D10*
X74001333Y-39949380D02*
X73668000Y-39473190D01*
X73429904Y-39949380D02*
X73429904Y-38949380D01*
X73810857Y-38949380D01*
X73906095Y-38997000D01*
X73953714Y-39044619D01*
X74001333Y-39139857D01*
X74001333Y-39282714D01*
X73953714Y-39377952D01*
X73906095Y-39425571D01*
X73810857Y-39473190D01*
X73429904Y-39473190D01*
X74334666Y-38949380D02*
X75001333Y-38949380D01*
X74572761Y-39949380D01*
X79954380Y-39552476D02*
X79954380Y-40123904D01*
X79954380Y-39838190D02*
X78954380Y-39838190D01*
X79097238Y-39933428D01*
X79192476Y-40028666D01*
X79240095Y-40123904D01*
X78954380Y-38933428D02*
X78954380Y-38838190D01*
X79002000Y-38742952D01*
X79049619Y-38695333D01*
X79144857Y-38647714D01*
X79335333Y-38600095D01*
X79573428Y-38600095D01*
X79763904Y-38647714D01*
X79859142Y-38695333D01*
X79906761Y-38742952D01*
X79954380Y-38838190D01*
X79954380Y-38933428D01*
X79906761Y-39028666D01*
X79859142Y-39076285D01*
X79763904Y-39123904D01*
X79573428Y-39171523D01*
X79335333Y-39171523D01*
X79144857Y-39123904D01*
X79049619Y-39076285D01*
X79002000Y-39028666D01*
X78954380Y-38933428D01*
X79954380Y-38171523D02*
X78954380Y-38171523D01*
X79954380Y-37600095D02*
X79382952Y-38028666D01*
X78954380Y-37600095D02*
X79525809Y-38171523D01*
X135215380Y-127206333D02*
X135929666Y-127206333D01*
X136072523Y-127253952D01*
X136167761Y-127349190D01*
X136215380Y-127492047D01*
X136215380Y-127587285D01*
X135643952Y-126587285D02*
X135596333Y-126682523D01*
X135548714Y-126730142D01*
X135453476Y-126777761D01*
X135405857Y-126777761D01*
X135310619Y-126730142D01*
X135263000Y-126682523D01*
X135215380Y-126587285D01*
X135215380Y-126396809D01*
X135263000Y-126301571D01*
X135310619Y-126253952D01*
X135405857Y-126206333D01*
X135453476Y-126206333D01*
X135548714Y-126253952D01*
X135596333Y-126301571D01*
X135643952Y-126396809D01*
X135643952Y-126587285D01*
X135691571Y-126682523D01*
X135739190Y-126730142D01*
X135834428Y-126777761D01*
X136024904Y-126777761D01*
X136120142Y-126730142D01*
X136167761Y-126682523D01*
X136215380Y-126587285D01*
X136215380Y-126396809D01*
X136167761Y-126301571D01*
X136120142Y-126253952D01*
X136024904Y-126206333D01*
X135834428Y-126206333D01*
X135739190Y-126253952D01*
X135691571Y-126301571D01*
X135643952Y-126396809D01*
X73961666Y-51566380D02*
X73961666Y-52280666D01*
X73914047Y-52423523D01*
X73818809Y-52518761D01*
X73675952Y-52566380D01*
X73580714Y-52566380D01*
X74342619Y-51566380D02*
X75009285Y-51566380D01*
X74580714Y-52566380D01*
X125142666Y-120019380D02*
X125142666Y-120733666D01*
X125095047Y-120876523D01*
X124999809Y-120971761D01*
X124856952Y-121019380D01*
X124761714Y-121019380D01*
X126047428Y-120019380D02*
X125856952Y-120019380D01*
X125761714Y-120067000D01*
X125714095Y-120114619D01*
X125618857Y-120257476D01*
X125571238Y-120447952D01*
X125571238Y-120828904D01*
X125618857Y-120924142D01*
X125666476Y-120971761D01*
X125761714Y-121019380D01*
X125952190Y-121019380D01*
X126047428Y-120971761D01*
X126095047Y-120924142D01*
X126142666Y-120828904D01*
X126142666Y-120590809D01*
X126095047Y-120495571D01*
X126047428Y-120447952D01*
X125952190Y-120400333D01*
X125761714Y-120400333D01*
X125666476Y-120447952D01*
X125618857Y-120495571D01*
X125571238Y-120590809D01*
X134540666Y-56050380D02*
X134540666Y-56764666D01*
X134493047Y-56907523D01*
X134397809Y-57002761D01*
X134254952Y-57050380D01*
X134159714Y-57050380D01*
X134921619Y-56050380D02*
X135540666Y-56050380D01*
X135207333Y-56431333D01*
X135350190Y-56431333D01*
X135445428Y-56478952D01*
X135493047Y-56526571D01*
X135540666Y-56621809D01*
X135540666Y-56859904D01*
X135493047Y-56955142D01*
X135445428Y-57002761D01*
X135350190Y-57050380D01*
X135064476Y-57050380D01*
X134969238Y-57002761D01*
X134921619Y-56955142D01*
X60368380Y-96345333D02*
X61082666Y-96345333D01*
X61225523Y-96392952D01*
X61320761Y-96488190D01*
X61368380Y-96631047D01*
X61368380Y-96726285D01*
X60368380Y-95392952D02*
X60368380Y-95869142D01*
X60844571Y-95916761D01*
X60796952Y-95869142D01*
X60749333Y-95773904D01*
X60749333Y-95535809D01*
X60796952Y-95440571D01*
X60844571Y-95392952D01*
X60939809Y-95345333D01*
X61177904Y-95345333D01*
X61273142Y-95392952D01*
X61320761Y-95440571D01*
X61368380Y-95535809D01*
X61368380Y-95773904D01*
X61320761Y-95869142D01*
X61273142Y-95916761D01*
X112569666Y-85133380D02*
X112569666Y-85847666D01*
X112522047Y-85990523D01*
X112426809Y-86085761D01*
X112283952Y-86133380D01*
X112188714Y-86133380D01*
X113474428Y-85466714D02*
X113474428Y-86133380D01*
X113236333Y-85085761D02*
X112998238Y-85800047D01*
X113617285Y-85800047D01*
X65856380Y-96178666D02*
X65380190Y-96512000D01*
X65856380Y-96750095D02*
X64856380Y-96750095D01*
X64856380Y-96369142D01*
X64904000Y-96273904D01*
X64951619Y-96226285D01*
X65046857Y-96178666D01*
X65189714Y-96178666D01*
X65284952Y-96226285D01*
X65332571Y-96273904D01*
X65380190Y-96369142D01*
X65380190Y-96750095D01*
X64856380Y-95321523D02*
X64856380Y-95512000D01*
X64904000Y-95607238D01*
X64951619Y-95654857D01*
X65094476Y-95750095D01*
X65284952Y-95797714D01*
X65665904Y-95797714D01*
X65761142Y-95750095D01*
X65808761Y-95702476D01*
X65856380Y-95607238D01*
X65856380Y-95416761D01*
X65808761Y-95321523D01*
X65761142Y-95273904D01*
X65665904Y-95226285D01*
X65427809Y-95226285D01*
X65332571Y-95273904D01*
X65284952Y-95321523D01*
X65237333Y-95416761D01*
X65237333Y-95607238D01*
X65284952Y-95702476D01*
X65332571Y-95750095D01*
X65427809Y-95797714D01*
X119380095Y-36746380D02*
X119380095Y-37555904D01*
X119427714Y-37651142D01*
X119475333Y-37698761D01*
X119570571Y-37746380D01*
X119761047Y-37746380D01*
X119856285Y-37698761D01*
X119903904Y-37651142D01*
X119951523Y-37555904D01*
X119951523Y-36746380D01*
X120332476Y-36746380D02*
X120951523Y-36746380D01*
X120618190Y-37127333D01*
X120761047Y-37127333D01*
X120856285Y-37174952D01*
X120903904Y-37222571D01*
X120951523Y-37317809D01*
X120951523Y-37555904D01*
X120903904Y-37651142D01*
X120856285Y-37698761D01*
X120761047Y-37746380D01*
X120475333Y-37746380D01*
X120380095Y-37698761D01*
X120332476Y-37651142D01*
X116880095Y-75426380D02*
X116880095Y-74426380D01*
X117356285Y-75426380D02*
X117356285Y-74426380D01*
X117594380Y-74426380D01*
X117737238Y-74474000D01*
X117832476Y-74569238D01*
X117880095Y-74664476D01*
X117927714Y-74854952D01*
X117927714Y-74997809D01*
X117880095Y-75188285D01*
X117832476Y-75283523D01*
X117737238Y-75378761D01*
X117594380Y-75426380D01*
X117356285Y-75426380D01*
X118213428Y-74426380D02*
X118784857Y-74426380D01*
X118499142Y-75426380D02*
X118499142Y-74426380D01*
X119022952Y-74426380D02*
X119689619Y-74426380D01*
X119261047Y-75426380D01*
X120594380Y-75426380D02*
X120022952Y-75426380D01*
X120308666Y-75426380D02*
X120308666Y-74426380D01*
X120213428Y-74569238D01*
X120118190Y-74664476D01*
X120022952Y-74712095D01*
X121451523Y-74426380D02*
X121261047Y-74426380D01*
X121165809Y-74474000D01*
X121118190Y-74521619D01*
X121022952Y-74664476D01*
X120975333Y-74854952D01*
X120975333Y-75235904D01*
X121022952Y-75331142D01*
X121070571Y-75378761D01*
X121165809Y-75426380D01*
X121356285Y-75426380D01*
X121451523Y-75378761D01*
X121499142Y-75331142D01*
X121546761Y-75235904D01*
X121546761Y-74997809D01*
X121499142Y-74902571D01*
X121451523Y-74854952D01*
X121356285Y-74807333D01*
X121165809Y-74807333D01*
X121070571Y-74854952D01*
X121022952Y-74902571D01*
X120975333Y-74997809D01*
X122403904Y-74759714D02*
X122403904Y-75426380D01*
X122165809Y-74378761D02*
X121927714Y-75093047D01*
X122546761Y-75093047D01*
X122880095Y-75378761D02*
X123022952Y-75426380D01*
X123261047Y-75426380D01*
X123356285Y-75378761D01*
X123403904Y-75331142D01*
X123451523Y-75235904D01*
X123451523Y-75140666D01*
X123403904Y-75045428D01*
X123356285Y-74997809D01*
X123261047Y-74950190D01*
X123070571Y-74902571D01*
X122975333Y-74854952D01*
X122927714Y-74807333D01*
X122880095Y-74712095D01*
X122880095Y-74616857D01*
X122927714Y-74521619D01*
X122975333Y-74474000D01*
X123070571Y-74426380D01*
X123308666Y-74426380D01*
X123451523Y-74474000D01*
X104648095Y-39286380D02*
X104648095Y-40095904D01*
X104695714Y-40191142D01*
X104743333Y-40238761D01*
X104838571Y-40286380D01*
X105029047Y-40286380D01*
X105124285Y-40238761D01*
X105171904Y-40191142D01*
X105219523Y-40095904D01*
X105219523Y-39286380D01*
X106171904Y-39286380D02*
X105695714Y-39286380D01*
X105648095Y-39762571D01*
X105695714Y-39714952D01*
X105790952Y-39667333D01*
X106029047Y-39667333D01*
X106124285Y-39714952D01*
X106171904Y-39762571D01*
X106219523Y-39857809D01*
X106219523Y-40095904D01*
X106171904Y-40191142D01*
X106124285Y-40238761D01*
X106029047Y-40286380D01*
X105790952Y-40286380D01*
X105695714Y-40238761D01*
X105648095Y-40191142D01*
X99886190Y-67758761D02*
X100029047Y-67806380D01*
X100267142Y-67806380D01*
X100362380Y-67758761D01*
X100410000Y-67711142D01*
X100457619Y-67615904D01*
X100457619Y-67520666D01*
X100410000Y-67425428D01*
X100362380Y-67377809D01*
X100267142Y-67330190D01*
X100076666Y-67282571D01*
X99981428Y-67234952D01*
X99933809Y-67187333D01*
X99886190Y-67092095D01*
X99886190Y-66996857D01*
X99933809Y-66901619D01*
X99981428Y-66854000D01*
X100076666Y-66806380D01*
X100314761Y-66806380D01*
X100457619Y-66854000D01*
X100886190Y-67806380D02*
X100886190Y-66806380D01*
X101457619Y-67806380D01*
X101457619Y-66806380D01*
X101838571Y-66806380D02*
X102505238Y-66806380D01*
X102076666Y-67806380D01*
X103314761Y-67139714D02*
X103314761Y-67806380D01*
X103076666Y-66758761D02*
X102838571Y-67473047D01*
X103457619Y-67473047D01*
X103790952Y-67520666D02*
X104267142Y-67520666D01*
X103695714Y-67806380D02*
X104029047Y-66806380D01*
X104362380Y-67806380D01*
X105171904Y-67806380D02*
X104695714Y-67806380D01*
X104695714Y-66806380D01*
X105457619Y-67758761D02*
X105600476Y-67806380D01*
X105838571Y-67806380D01*
X105933809Y-67758761D01*
X105981428Y-67711142D01*
X106029047Y-67615904D01*
X106029047Y-67520666D01*
X105981428Y-67425428D01*
X105933809Y-67377809D01*
X105838571Y-67330190D01*
X105648095Y-67282571D01*
X105552857Y-67234952D01*
X105505238Y-67187333D01*
X105457619Y-67092095D01*
X105457619Y-66996857D01*
X105505238Y-66901619D01*
X105552857Y-66854000D01*
X105648095Y-66806380D01*
X105886190Y-66806380D01*
X106029047Y-66854000D01*
X106933809Y-66806380D02*
X106457619Y-66806380D01*
X106410000Y-67282571D01*
X106457619Y-67234952D01*
X106552857Y-67187333D01*
X106790952Y-67187333D01*
X106886190Y-67234952D01*
X106933809Y-67282571D01*
X106981428Y-67377809D01*
X106981428Y-67615904D01*
X106933809Y-67711142D01*
X106886190Y-67758761D01*
X106790952Y-67806380D01*
X106552857Y-67806380D01*
X106457619Y-67758761D01*
X106410000Y-67711142D01*
X107314761Y-66806380D02*
X107981428Y-66806380D01*
X107552857Y-67806380D01*
X108267142Y-66806380D02*
X108886190Y-66806380D01*
X108552857Y-67187333D01*
X108695714Y-67187333D01*
X108790952Y-67234952D01*
X108838571Y-67282571D01*
X108886190Y-67377809D01*
X108886190Y-67615904D01*
X108838571Y-67711142D01*
X108790952Y-67758761D01*
X108695714Y-67806380D01*
X108410000Y-67806380D01*
X108314761Y-67758761D01*
X108267142Y-67711142D01*
X109886190Y-67711142D02*
X109838571Y-67758761D01*
X109695714Y-67806380D01*
X109600476Y-67806380D01*
X109457619Y-67758761D01*
X109362380Y-67663523D01*
X109314761Y-67568285D01*
X109267142Y-67377809D01*
X109267142Y-67234952D01*
X109314761Y-67044476D01*
X109362380Y-66949238D01*
X109457619Y-66854000D01*
X109600476Y-66806380D01*
X109695714Y-66806380D01*
X109838571Y-66854000D01*
X109886190Y-66901619D01*
X110314761Y-67806380D02*
X110314761Y-66806380D01*
X110886190Y-67806380D01*
X110886190Y-66806380D01*
X45473190Y-68892190D02*
X45949380Y-68892190D01*
X44949380Y-69225523D02*
X45473190Y-68892190D01*
X44949380Y-68558857D01*
X45044619Y-68273142D02*
X44997000Y-68225523D01*
X44949380Y-68130285D01*
X44949380Y-67892190D01*
X44997000Y-67796952D01*
X45044619Y-67749333D01*
X45139857Y-67701714D01*
X45235095Y-67701714D01*
X45377952Y-67749333D01*
X45949380Y-68320761D01*
X45949380Y-67701714D01*
X52999380Y-70820761D02*
X52999380Y-71392190D01*
X52999380Y-71106476D02*
X51999380Y-71106476D01*
X52142238Y-71201714D01*
X52237476Y-71296952D01*
X52285095Y-71392190D01*
X51999380Y-69963619D02*
X51999380Y-70154095D01*
X52047000Y-70249333D01*
X52094619Y-70296952D01*
X52237476Y-70392190D01*
X52427952Y-70439809D01*
X52808904Y-70439809D01*
X52904142Y-70392190D01*
X52951761Y-70344571D01*
X52999380Y-70249333D01*
X52999380Y-70058857D01*
X52951761Y-69963619D01*
X52904142Y-69916000D01*
X52808904Y-69868380D01*
X52570809Y-69868380D01*
X52475571Y-69916000D01*
X52427952Y-69963619D01*
X52380333Y-70058857D01*
X52380333Y-70249333D01*
X52427952Y-70344571D01*
X52475571Y-70392190D01*
X52570809Y-70439809D01*
X52904142Y-69439809D02*
X52951761Y-69392190D01*
X52999380Y-69439809D01*
X52951761Y-69487428D01*
X52904142Y-69439809D01*
X52999380Y-69439809D01*
X51999380Y-68773142D02*
X51999380Y-68677904D01*
X52047000Y-68582666D01*
X52094619Y-68535047D01*
X52189857Y-68487428D01*
X52380333Y-68439809D01*
X52618428Y-68439809D01*
X52808904Y-68487428D01*
X52904142Y-68535047D01*
X52951761Y-68582666D01*
X52999380Y-68677904D01*
X52999380Y-68773142D01*
X52951761Y-68868380D01*
X52904142Y-68916000D01*
X52808904Y-68963619D01*
X52618428Y-69011238D01*
X52380333Y-69011238D01*
X52189857Y-68963619D01*
X52094619Y-68916000D01*
X52047000Y-68868380D01*
X51999380Y-68773142D01*
X52999380Y-68011238D02*
X51999380Y-68011238D01*
X52713666Y-67677904D01*
X51999380Y-67344571D01*
X52999380Y-67344571D01*
X52999380Y-66868380D02*
X51999380Y-66868380D01*
X52475571Y-66868380D02*
X52475571Y-66296952D01*
X52999380Y-66296952D02*
X51999380Y-66296952D01*
X52332714Y-65916000D02*
X52332714Y-65392190D01*
X52999380Y-65916000D01*
X52999380Y-65392190D01*
X72335190Y-87508190D02*
X72811380Y-87508190D01*
X71811380Y-87841523D02*
X72335190Y-87508190D01*
X71811380Y-87174857D01*
X72811380Y-86317714D02*
X72811380Y-86889142D01*
X72811380Y-86603428D02*
X71811380Y-86603428D01*
X71954238Y-86698666D01*
X72049476Y-86793904D01*
X72097095Y-86889142D01*
X70651714Y-90320380D02*
X71318380Y-90320380D01*
X70270761Y-90558476D02*
X70985047Y-90796571D01*
X70985047Y-90177523D01*
X71270761Y-89748952D02*
X71318380Y-89748952D01*
X71413619Y-89796571D01*
X71461238Y-89844190D01*
X71318380Y-89272761D02*
X71318380Y-89082285D01*
X71270761Y-88987047D01*
X71223142Y-88939428D01*
X71080285Y-88844190D01*
X70889809Y-88796571D01*
X70508857Y-88796571D01*
X70413619Y-88844190D01*
X70366000Y-88891809D01*
X70318380Y-88987047D01*
X70318380Y-89177523D01*
X70366000Y-89272761D01*
X70413619Y-89320380D01*
X70508857Y-89368000D01*
X70746952Y-89368000D01*
X70842190Y-89320380D01*
X70889809Y-89272761D01*
X70937428Y-89177523D01*
X70937428Y-88987047D01*
X70889809Y-88891809D01*
X70842190Y-88844190D01*
X70746952Y-88796571D01*
X71318380Y-87844190D02*
X71318380Y-88415619D01*
X71318380Y-88129904D02*
X70318380Y-88129904D01*
X70461238Y-88225142D01*
X70556476Y-88320380D01*
X70604095Y-88415619D01*
X70318380Y-86939428D02*
X70318380Y-87415619D01*
X70794571Y-87463238D01*
X70746952Y-87415619D01*
X70699333Y-87320380D01*
X70699333Y-87082285D01*
X70746952Y-86987047D01*
X70794571Y-86939428D01*
X70889809Y-86891809D01*
X71127904Y-86891809D01*
X71223142Y-86939428D01*
X71270761Y-86987047D01*
X71318380Y-87082285D01*
X71318380Y-87320380D01*
X71270761Y-87415619D01*
X71223142Y-87463238D01*
X70413619Y-86510857D02*
X70366000Y-86463238D01*
X70318380Y-86368000D01*
X70318380Y-86129904D01*
X70366000Y-86034666D01*
X70413619Y-85987047D01*
X70508857Y-85939428D01*
X70604095Y-85939428D01*
X70746952Y-85987047D01*
X71318380Y-86558476D01*
X71318380Y-85939428D01*
X71318380Y-85510857D02*
X70318380Y-85510857D01*
X71032666Y-85177523D01*
X70318380Y-84844190D01*
X71318380Y-84844190D01*
X71318380Y-84368000D02*
X70318380Y-84368000D01*
X70794571Y-84368000D02*
X70794571Y-83796571D01*
X71318380Y-83796571D02*
X70318380Y-83796571D01*
X70651714Y-83415619D02*
X70651714Y-82891809D01*
X71318380Y-83415619D01*
X71318380Y-82891809D01*
X119507095Y-80053380D02*
X119507095Y-80862904D01*
X119554714Y-80958142D01*
X119602333Y-81005761D01*
X119697571Y-81053380D01*
X119888047Y-81053380D01*
X119983285Y-81005761D01*
X120030904Y-80958142D01*
X120078523Y-80862904D01*
X120078523Y-80053380D01*
X120602333Y-81053380D02*
X120792809Y-81053380D01*
X120888047Y-81005761D01*
X120935666Y-80958142D01*
X121030904Y-80815285D01*
X121078523Y-80624809D01*
X121078523Y-80243857D01*
X121030904Y-80148619D01*
X120983285Y-80101000D01*
X120888047Y-80053380D01*
X120697571Y-80053380D01*
X120602333Y-80101000D01*
X120554714Y-80148619D01*
X120507095Y-80243857D01*
X120507095Y-80481952D01*
X120554714Y-80577190D01*
X120602333Y-80624809D01*
X120697571Y-80672428D01*
X120888047Y-80672428D01*
X120983285Y-80624809D01*
X121030904Y-80577190D01*
X121078523Y-80481952D01*
X117126142Y-108287666D02*
X117602333Y-108287666D01*
X117030904Y-108573380D02*
X117364238Y-107573380D01*
X117697571Y-108573380D01*
X118030904Y-108573380D02*
X118030904Y-107573380D01*
X118269000Y-107573380D01*
X118411857Y-107621000D01*
X118507095Y-107716238D01*
X118554714Y-107811476D01*
X118602333Y-108001952D01*
X118602333Y-108144809D01*
X118554714Y-108335285D01*
X118507095Y-108430523D01*
X118411857Y-108525761D01*
X118269000Y-108573380D01*
X118030904Y-108573380D01*
X119602333Y-108478142D02*
X119554714Y-108525761D01*
X119411857Y-108573380D01*
X119316619Y-108573380D01*
X119173761Y-108525761D01*
X119078523Y-108430523D01*
X119030904Y-108335285D01*
X118983285Y-108144809D01*
X118983285Y-108001952D01*
X119030904Y-107811476D01*
X119078523Y-107716238D01*
X119173761Y-107621000D01*
X119316619Y-107573380D01*
X119411857Y-107573380D01*
X119554714Y-107621000D01*
X119602333Y-107668619D01*
X120221380Y-107573380D02*
X120316619Y-107573380D01*
X120411857Y-107621000D01*
X120459476Y-107668619D01*
X120507095Y-107763857D01*
X120554714Y-107954333D01*
X120554714Y-108192428D01*
X120507095Y-108382904D01*
X120459476Y-108478142D01*
X120411857Y-108525761D01*
X120316619Y-108573380D01*
X120221380Y-108573380D01*
X120126142Y-108525761D01*
X120078523Y-108478142D01*
X120030904Y-108382904D01*
X119983285Y-108192428D01*
X119983285Y-107954333D01*
X120030904Y-107763857D01*
X120078523Y-107668619D01*
X120126142Y-107621000D01*
X120221380Y-107573380D01*
X121126142Y-108001952D02*
X121030904Y-107954333D01*
X120983285Y-107906714D01*
X120935666Y-107811476D01*
X120935666Y-107763857D01*
X120983285Y-107668619D01*
X121030904Y-107621000D01*
X121126142Y-107573380D01*
X121316619Y-107573380D01*
X121411857Y-107621000D01*
X121459476Y-107668619D01*
X121507095Y-107763857D01*
X121507095Y-107811476D01*
X121459476Y-107906714D01*
X121411857Y-107954333D01*
X121316619Y-108001952D01*
X121126142Y-108001952D01*
X121030904Y-108049571D01*
X120983285Y-108097190D01*
X120935666Y-108192428D01*
X120935666Y-108382904D01*
X120983285Y-108478142D01*
X121030904Y-108525761D01*
X121126142Y-108573380D01*
X121316619Y-108573380D01*
X121411857Y-108525761D01*
X121459476Y-108478142D01*
X121507095Y-108382904D01*
X121507095Y-108192428D01*
X121459476Y-108097190D01*
X121411857Y-108049571D01*
X121316619Y-108001952D01*
X122364238Y-107906714D02*
X122364238Y-108573380D01*
X122126142Y-107525761D02*
X121888047Y-108240047D01*
X122507095Y-108240047D01*
X123316619Y-107906714D02*
X123316619Y-108573380D01*
X123078523Y-107525761D02*
X122840428Y-108240047D01*
X123459476Y-108240047D01*
X87380380Y-105028904D02*
X88189904Y-105028904D01*
X88285142Y-104981285D01*
X88332761Y-104933666D01*
X88380380Y-104838428D01*
X88380380Y-104647952D01*
X88332761Y-104552714D01*
X88285142Y-104505095D01*
X88189904Y-104457476D01*
X87380380Y-104457476D01*
X87808952Y-103838428D02*
X87761333Y-103933666D01*
X87713714Y-103981285D01*
X87618476Y-104028904D01*
X87570857Y-104028904D01*
X87475619Y-103981285D01*
X87428000Y-103933666D01*
X87380380Y-103838428D01*
X87380380Y-103647952D01*
X87428000Y-103552714D01*
X87475619Y-103505095D01*
X87570857Y-103457476D01*
X87618476Y-103457476D01*
X87713714Y-103505095D01*
X87761333Y-103552714D01*
X87808952Y-103647952D01*
X87808952Y-103838428D01*
X87856571Y-103933666D01*
X87904190Y-103981285D01*
X87999428Y-104028904D01*
X88189904Y-104028904D01*
X88285142Y-103981285D01*
X88332761Y-103933666D01*
X88380380Y-103838428D01*
X88380380Y-103647952D01*
X88332761Y-103552714D01*
X88285142Y-103505095D01*
X88189904Y-103457476D01*
X87999428Y-103457476D01*
X87904190Y-103505095D01*
X87856571Y-103552714D01*
X87808952Y-103647952D01*
X60860380Y-106933666D02*
X59860380Y-106933666D01*
X60574666Y-106600333D01*
X59860380Y-106267000D01*
X60860380Y-106267000D01*
X60574666Y-105838428D02*
X60574666Y-105362238D01*
X60860380Y-105933666D02*
X59860380Y-105600333D01*
X60860380Y-105267000D01*
X59860380Y-105028904D02*
X60860380Y-104362238D01*
X59860380Y-104362238D02*
X60860380Y-105028904D01*
X59955619Y-104028904D02*
X59908000Y-103981285D01*
X59860380Y-103886047D01*
X59860380Y-103647952D01*
X59908000Y-103552714D01*
X59955619Y-103505095D01*
X60050857Y-103457476D01*
X60146095Y-103457476D01*
X60288952Y-103505095D01*
X60860380Y-104076523D01*
X60860380Y-103457476D01*
X59860380Y-103124142D02*
X59860380Y-102505095D01*
X60241333Y-102838428D01*
X60241333Y-102695571D01*
X60288952Y-102600333D01*
X60336571Y-102552714D01*
X60431809Y-102505095D01*
X60669904Y-102505095D01*
X60765142Y-102552714D01*
X60812761Y-102600333D01*
X60860380Y-102695571D01*
X60860380Y-102981285D01*
X60812761Y-103076523D01*
X60765142Y-103124142D01*
X59860380Y-102171761D02*
X59860380Y-101552714D01*
X60241333Y-101886047D01*
X60241333Y-101743190D01*
X60288952Y-101647952D01*
X60336571Y-101600333D01*
X60431809Y-101552714D01*
X60669904Y-101552714D01*
X60765142Y-101600333D01*
X60812761Y-101647952D01*
X60860380Y-101743190D01*
X60860380Y-102028904D01*
X60812761Y-102124142D01*
X60765142Y-102171761D01*
X59182095Y-76624380D02*
X59182095Y-77433904D01*
X59229714Y-77529142D01*
X59277333Y-77576761D01*
X59372571Y-77624380D01*
X59563047Y-77624380D01*
X59658285Y-77576761D01*
X59705904Y-77529142D01*
X59753523Y-77433904D01*
X59753523Y-76624380D01*
X60134476Y-76624380D02*
X60801142Y-76624380D01*
X60372571Y-77624380D01*
X54729714Y-89904380D02*
X54729714Y-88904380D01*
X55063047Y-89618666D01*
X55396380Y-88904380D01*
X55396380Y-89904380D01*
X56444000Y-89809142D02*
X56396380Y-89856761D01*
X56253523Y-89904380D01*
X56158285Y-89904380D01*
X56015428Y-89856761D01*
X55920190Y-89761523D01*
X55872571Y-89666285D01*
X55824952Y-89475809D01*
X55824952Y-89332952D01*
X55872571Y-89142476D01*
X55920190Y-89047238D01*
X56015428Y-88952000D01*
X56158285Y-88904380D01*
X56253523Y-88904380D01*
X56396380Y-88952000D01*
X56444000Y-88999619D01*
X56872571Y-89904380D02*
X56872571Y-88904380D01*
X57253523Y-88904380D01*
X57348761Y-88952000D01*
X57396380Y-88999619D01*
X57444000Y-89094857D01*
X57444000Y-89237714D01*
X57396380Y-89332952D01*
X57348761Y-89380571D01*
X57253523Y-89428190D01*
X56872571Y-89428190D01*
X57824952Y-88999619D02*
X57872571Y-88952000D01*
X57967809Y-88904380D01*
X58205904Y-88904380D01*
X58301142Y-88952000D01*
X58348761Y-88999619D01*
X58396380Y-89094857D01*
X58396380Y-89190095D01*
X58348761Y-89332952D01*
X57777333Y-89904380D01*
X58396380Y-89904380D01*
X59301142Y-88904380D02*
X58824952Y-88904380D01*
X58777333Y-89380571D01*
X58824952Y-89332952D01*
X58920190Y-89285333D01*
X59158285Y-89285333D01*
X59253523Y-89332952D01*
X59301142Y-89380571D01*
X59348761Y-89475809D01*
X59348761Y-89713904D01*
X59301142Y-89809142D01*
X59253523Y-89856761D01*
X59158285Y-89904380D01*
X58920190Y-89904380D01*
X58824952Y-89856761D01*
X58777333Y-89809142D01*
X60253523Y-88904380D02*
X59777333Y-88904380D01*
X59729714Y-89380571D01*
X59777333Y-89332952D01*
X59872571Y-89285333D01*
X60110666Y-89285333D01*
X60205904Y-89332952D01*
X60253523Y-89380571D01*
X60301142Y-89475809D01*
X60301142Y-89713904D01*
X60253523Y-89809142D01*
X60205904Y-89856761D01*
X60110666Y-89904380D01*
X59872571Y-89904380D01*
X59777333Y-89856761D01*
X59729714Y-89809142D01*
X61253523Y-89904380D02*
X60682095Y-89904380D01*
X60967809Y-89904380D02*
X60967809Y-88904380D01*
X60872571Y-89047238D01*
X60777333Y-89142476D01*
X60682095Y-89190095D01*
X61682095Y-89523428D02*
X62444000Y-89523428D01*
X62920190Y-89904380D02*
X62920190Y-88904380D01*
X63396380Y-89523428D02*
X64158285Y-89523428D01*
X64634476Y-89904380D02*
X64634476Y-88904380D01*
X65015428Y-88904380D01*
X65110666Y-88952000D01*
X65158285Y-88999619D01*
X65205904Y-89094857D01*
X65205904Y-89237714D01*
X65158285Y-89332952D01*
X65110666Y-89380571D01*
X65015428Y-89428190D01*
X64634476Y-89428190D01*
X59436095Y-49446380D02*
X59436095Y-50255904D01*
X59483714Y-50351142D01*
X59531333Y-50398761D01*
X59626571Y-50446380D01*
X59817047Y-50446380D01*
X59912285Y-50398761D01*
X59959904Y-50351142D01*
X60007523Y-50255904D01*
X60007523Y-49446380D01*
X60912285Y-49446380D02*
X60721809Y-49446380D01*
X60626571Y-49494000D01*
X60578952Y-49541619D01*
X60483714Y-49684476D01*
X60436095Y-49874952D01*
X60436095Y-50255904D01*
X60483714Y-50351142D01*
X60531333Y-50398761D01*
X60626571Y-50446380D01*
X60817047Y-50446380D01*
X60912285Y-50398761D01*
X60959904Y-50351142D01*
X61007523Y-50255904D01*
X61007523Y-50017809D01*
X60959904Y-49922571D01*
X60912285Y-49874952D01*
X60817047Y-49827333D01*
X60626571Y-49827333D01*
X60531333Y-49874952D01*
X60483714Y-49922571D01*
X60436095Y-50017809D01*
X53650380Y-75426380D02*
X53650380Y-74426380D01*
X53983714Y-75140666D01*
X54317047Y-74426380D01*
X54317047Y-75426380D01*
X55364666Y-75331142D02*
X55317047Y-75378761D01*
X55174190Y-75426380D01*
X55078952Y-75426380D01*
X54936095Y-75378761D01*
X54840857Y-75283523D01*
X54793238Y-75188285D01*
X54745619Y-74997809D01*
X54745619Y-74854952D01*
X54793238Y-74664476D01*
X54840857Y-74569238D01*
X54936095Y-74474000D01*
X55078952Y-74426380D01*
X55174190Y-74426380D01*
X55317047Y-74474000D01*
X55364666Y-74521619D01*
X55793238Y-75426380D02*
X55793238Y-74426380D01*
X56174190Y-74426380D01*
X56269428Y-74474000D01*
X56317047Y-74521619D01*
X56364666Y-74616857D01*
X56364666Y-74759714D01*
X56317047Y-74854952D01*
X56269428Y-74902571D01*
X56174190Y-74950190D01*
X55793238Y-74950190D01*
X56745619Y-74521619D02*
X56793238Y-74474000D01*
X56888476Y-74426380D01*
X57126571Y-74426380D01*
X57221809Y-74474000D01*
X57269428Y-74521619D01*
X57317047Y-74616857D01*
X57317047Y-74712095D01*
X57269428Y-74854952D01*
X56698000Y-75426380D01*
X57317047Y-75426380D01*
X58221809Y-74426380D02*
X57745619Y-74426380D01*
X57698000Y-74902571D01*
X57745619Y-74854952D01*
X57840857Y-74807333D01*
X58078952Y-74807333D01*
X58174190Y-74854952D01*
X58221809Y-74902571D01*
X58269428Y-74997809D01*
X58269428Y-75235904D01*
X58221809Y-75331142D01*
X58174190Y-75378761D01*
X58078952Y-75426380D01*
X57840857Y-75426380D01*
X57745619Y-75378761D01*
X57698000Y-75331142D01*
X59221809Y-75426380D02*
X58650380Y-75426380D01*
X58936095Y-75426380D02*
X58936095Y-74426380D01*
X58840857Y-74569238D01*
X58745619Y-74664476D01*
X58650380Y-74712095D01*
X60126571Y-74426380D02*
X59650380Y-74426380D01*
X59602761Y-74902571D01*
X59650380Y-74854952D01*
X59745619Y-74807333D01*
X59983714Y-74807333D01*
X60078952Y-74854952D01*
X60126571Y-74902571D01*
X60174190Y-74997809D01*
X60174190Y-75235904D01*
X60126571Y-75331142D01*
X60078952Y-75378761D01*
X59983714Y-75426380D01*
X59745619Y-75426380D01*
X59650380Y-75378761D01*
X59602761Y-75331142D01*
X60602761Y-75045428D02*
X61364666Y-75045428D01*
X62364666Y-75426380D02*
X61793238Y-75426380D01*
X62078952Y-75426380D02*
X62078952Y-74426380D01*
X61983714Y-74569238D01*
X61888476Y-74664476D01*
X61793238Y-74712095D01*
X62936095Y-74854952D02*
X62840857Y-74807333D01*
X62793238Y-74759714D01*
X62745619Y-74664476D01*
X62745619Y-74616857D01*
X62793238Y-74521619D01*
X62840857Y-74474000D01*
X62936095Y-74426380D01*
X63126571Y-74426380D01*
X63221809Y-74474000D01*
X63269428Y-74521619D01*
X63317047Y-74616857D01*
X63317047Y-74664476D01*
X63269428Y-74759714D01*
X63221809Y-74807333D01*
X63126571Y-74854952D01*
X62936095Y-74854952D01*
X62840857Y-74902571D01*
X62793238Y-74950190D01*
X62745619Y-75045428D01*
X62745619Y-75235904D01*
X62793238Y-75331142D01*
X62840857Y-75378761D01*
X62936095Y-75426380D01*
X63126571Y-75426380D01*
X63221809Y-75378761D01*
X63269428Y-75331142D01*
X63317047Y-75235904D01*
X63317047Y-75045428D01*
X63269428Y-74950190D01*
X63221809Y-74902571D01*
X63126571Y-74854952D01*
X63745619Y-75426380D02*
X63745619Y-74426380D01*
X64126571Y-74426380D01*
X64221809Y-74474000D01*
X64269428Y-74521619D01*
X64317047Y-74616857D01*
X64317047Y-74759714D01*
X64269428Y-74854952D01*
X64221809Y-74902571D01*
X64126571Y-74950190D01*
X63745619Y-74950190D01*
X64745619Y-75426380D02*
X64745619Y-74426380D01*
X64983714Y-74426380D01*
X65126571Y-74474000D01*
X65221809Y-74569238D01*
X65269428Y-74664476D01*
X65317047Y-74854952D01*
X65317047Y-74997809D01*
X65269428Y-75188285D01*
X65221809Y-75283523D01*
X65126571Y-75378761D01*
X64983714Y-75426380D01*
X64745619Y-75426380D01*
X65745619Y-75426380D02*
X65745619Y-74426380D01*
X66221809Y-75426380D02*
X66221809Y-74426380D01*
X66602761Y-74426380D01*
X66698000Y-74474000D01*
X66745619Y-74521619D01*
X66793238Y-74616857D01*
X66793238Y-74759714D01*
X66745619Y-74854952D01*
X66698000Y-74902571D01*
X66602761Y-74950190D01*
X66221809Y-74950190D01*
X101854095Y-80053380D02*
X101854095Y-80862904D01*
X101901714Y-80958142D01*
X101949333Y-81005761D01*
X102044571Y-81053380D01*
X102235047Y-81053380D01*
X102330285Y-81005761D01*
X102377904Y-80958142D01*
X102425523Y-80862904D01*
X102425523Y-80053380D01*
X103330285Y-80386714D02*
X103330285Y-81053380D01*
X103092190Y-80005761D02*
X102854095Y-80720047D01*
X103473142Y-80720047D01*
X100187428Y-107621000D02*
X100092190Y-107573380D01*
X99949333Y-107573380D01*
X99806476Y-107621000D01*
X99711238Y-107716238D01*
X99663619Y-107811476D01*
X99616000Y-108001952D01*
X99616000Y-108144809D01*
X99663619Y-108335285D01*
X99711238Y-108430523D01*
X99806476Y-108525761D01*
X99949333Y-108573380D01*
X100044571Y-108573380D01*
X100187428Y-108525761D01*
X100235047Y-108478142D01*
X100235047Y-108144809D01*
X100044571Y-108144809D01*
X100616000Y-108287666D02*
X101092190Y-108287666D01*
X100520761Y-108573380D02*
X100854095Y-107573380D01*
X101187428Y-108573380D01*
X101996952Y-108573380D02*
X101520761Y-108573380D01*
X101520761Y-107573380D01*
X102854095Y-108573380D02*
X102282666Y-108573380D01*
X102568380Y-108573380D02*
X102568380Y-107573380D01*
X102473142Y-107716238D01*
X102377904Y-107811476D01*
X102282666Y-107859095D01*
X103711238Y-107573380D02*
X103520761Y-107573380D01*
X103425523Y-107621000D01*
X103377904Y-107668619D01*
X103282666Y-107811476D01*
X103235047Y-108001952D01*
X103235047Y-108382904D01*
X103282666Y-108478142D01*
X103330285Y-108525761D01*
X103425523Y-108573380D01*
X103616000Y-108573380D01*
X103711238Y-108525761D01*
X103758857Y-108478142D01*
X103806476Y-108382904D01*
X103806476Y-108144809D01*
X103758857Y-108049571D01*
X103711238Y-108001952D01*
X103616000Y-107954333D01*
X103425523Y-107954333D01*
X103330285Y-108001952D01*
X103282666Y-108049571D01*
X103235047Y-108144809D01*
X104092190Y-107573380D02*
X104425523Y-108573380D01*
X104758857Y-107573380D01*
X105235047Y-108001952D02*
X105139809Y-107954333D01*
X105092190Y-107906714D01*
X105044571Y-107811476D01*
X105044571Y-107763857D01*
X105092190Y-107668619D01*
X105139809Y-107621000D01*
X105235047Y-107573380D01*
X105425523Y-107573380D01*
X105520761Y-107621000D01*
X105568380Y-107668619D01*
X105616000Y-107763857D01*
X105616000Y-107811476D01*
X105568380Y-107906714D01*
X105520761Y-107954333D01*
X105425523Y-108001952D01*
X105235047Y-108001952D01*
X105139809Y-108049571D01*
X105092190Y-108097190D01*
X105044571Y-108192428D01*
X105044571Y-108382904D01*
X105092190Y-108478142D01*
X105139809Y-108525761D01*
X105235047Y-108573380D01*
X105425523Y-108573380D01*
X105520761Y-108525761D01*
X105568380Y-108478142D01*
X105616000Y-108382904D01*
X105616000Y-108192428D01*
X105568380Y-108097190D01*
X105520761Y-108049571D01*
X105425523Y-108001952D01*
X84582095Y-39286380D02*
X84582095Y-40095904D01*
X84629714Y-40191142D01*
X84677333Y-40238761D01*
X84772571Y-40286380D01*
X84963047Y-40286380D01*
X85058285Y-40238761D01*
X85105904Y-40191142D01*
X85153523Y-40095904D01*
X85153523Y-39286380D01*
X85582095Y-39381619D02*
X85629714Y-39334000D01*
X85724952Y-39286380D01*
X85963047Y-39286380D01*
X86058285Y-39334000D01*
X86105904Y-39381619D01*
X86153523Y-39476857D01*
X86153523Y-39572095D01*
X86105904Y-39714952D01*
X85534476Y-40286380D01*
X86153523Y-40286380D01*
X78701142Y-92920666D02*
X79177333Y-92920666D01*
X78605904Y-93206380D02*
X78939238Y-92206380D01*
X79272571Y-93206380D01*
X79463047Y-92206380D02*
X80034476Y-92206380D01*
X79748761Y-93206380D02*
X79748761Y-92206380D01*
X80367809Y-93206380D02*
X80367809Y-92539714D01*
X80367809Y-92634952D02*
X80415428Y-92587333D01*
X80510666Y-92539714D01*
X80653523Y-92539714D01*
X80748761Y-92587333D01*
X80796380Y-92682571D01*
X80796380Y-93206380D01*
X80796380Y-92682571D02*
X80844000Y-92587333D01*
X80939238Y-92539714D01*
X81082095Y-92539714D01*
X81177333Y-92587333D01*
X81224952Y-92682571D01*
X81224952Y-93206380D01*
X82082095Y-93158761D02*
X81986857Y-93206380D01*
X81796380Y-93206380D01*
X81701142Y-93158761D01*
X81653523Y-93063523D01*
X81653523Y-92682571D01*
X81701142Y-92587333D01*
X81796380Y-92539714D01*
X81986857Y-92539714D01*
X82082095Y-92587333D01*
X82129714Y-92682571D01*
X82129714Y-92777809D01*
X81653523Y-92873047D01*
X82986857Y-92539714D02*
X82986857Y-93349238D01*
X82939238Y-93444476D01*
X82891619Y-93492095D01*
X82796380Y-93539714D01*
X82653523Y-93539714D01*
X82558285Y-93492095D01*
X82986857Y-93158761D02*
X82891619Y-93206380D01*
X82701142Y-93206380D01*
X82605904Y-93158761D01*
X82558285Y-93111142D01*
X82510666Y-93015904D01*
X82510666Y-92730190D01*
X82558285Y-92634952D01*
X82605904Y-92587333D01*
X82701142Y-92539714D01*
X82891619Y-92539714D01*
X82986857Y-92587333D01*
X83891619Y-93206380D02*
X83891619Y-92682571D01*
X83844000Y-92587333D01*
X83748761Y-92539714D01*
X83558285Y-92539714D01*
X83463047Y-92587333D01*
X83891619Y-93158761D02*
X83796380Y-93206380D01*
X83558285Y-93206380D01*
X83463047Y-93158761D01*
X83415428Y-93063523D01*
X83415428Y-92968285D01*
X83463047Y-92873047D01*
X83558285Y-92825428D01*
X83796380Y-92825428D01*
X83891619Y-92777809D01*
X84891619Y-93206380D02*
X84320190Y-93206380D01*
X84605904Y-93206380D02*
X84605904Y-92206380D01*
X84510666Y-92349238D01*
X84415428Y-92444476D01*
X84320190Y-92492095D01*
X85748761Y-92206380D02*
X85558285Y-92206380D01*
X85463047Y-92254000D01*
X85415428Y-92301619D01*
X85320190Y-92444476D01*
X85272571Y-92634952D01*
X85272571Y-93015904D01*
X85320190Y-93111142D01*
X85367809Y-93158761D01*
X85463047Y-93206380D01*
X85653523Y-93206380D01*
X85748761Y-93158761D01*
X85796380Y-93111142D01*
X85844000Y-93015904D01*
X85844000Y-92777809D01*
X85796380Y-92682571D01*
X85748761Y-92634952D01*
X85653523Y-92587333D01*
X85463047Y-92587333D01*
X85367809Y-92634952D01*
X85320190Y-92682571D01*
X85272571Y-92777809D01*
X86224952Y-92301619D02*
X86272571Y-92254000D01*
X86367809Y-92206380D01*
X86605904Y-92206380D01*
X86701142Y-92254000D01*
X86748761Y-92301619D01*
X86796380Y-92396857D01*
X86796380Y-92492095D01*
X86748761Y-92634952D01*
X86177333Y-93206380D01*
X86796380Y-93206380D01*
X87224952Y-92825428D02*
X87986857Y-92825428D01*
X88986857Y-93206380D02*
X88415428Y-93206380D01*
X88701142Y-93206380D02*
X88701142Y-92206380D01*
X88605904Y-92349238D01*
X88510666Y-92444476D01*
X88415428Y-92492095D01*
X89844000Y-92206380D02*
X89653523Y-92206380D01*
X89558285Y-92254000D01*
X89510666Y-92301619D01*
X89415428Y-92444476D01*
X89367809Y-92634952D01*
X89367809Y-93015904D01*
X89415428Y-93111142D01*
X89463047Y-93158761D01*
X89558285Y-93206380D01*
X89748761Y-93206380D01*
X89844000Y-93158761D01*
X89891619Y-93111142D01*
X89939238Y-93015904D01*
X89939238Y-92777809D01*
X89891619Y-92682571D01*
X89844000Y-92634952D01*
X89748761Y-92587333D01*
X89558285Y-92587333D01*
X89463047Y-92634952D01*
X89415428Y-92682571D01*
X89367809Y-92777809D01*
X90367809Y-93206380D02*
X90367809Y-92206380D01*
X90748761Y-92206380D01*
X90844000Y-92254000D01*
X90891619Y-92301619D01*
X90939238Y-92396857D01*
X90939238Y-92539714D01*
X90891619Y-92634952D01*
X90844000Y-92682571D01*
X90748761Y-92730190D01*
X90367809Y-92730190D01*
X91367809Y-92206380D02*
X91367809Y-93015904D01*
X91415428Y-93111142D01*
X91463047Y-93158761D01*
X91558285Y-93206380D01*
X91748761Y-93206380D01*
X91844000Y-93158761D01*
X91891619Y-93111142D01*
X91939238Y-93015904D01*
X91939238Y-92206380D01*
X129506380Y-115569904D02*
X130315904Y-115569904D01*
X130411142Y-115522285D01*
X130458761Y-115474666D01*
X130506380Y-115379428D01*
X130506380Y-115188952D01*
X130458761Y-115093714D01*
X130411142Y-115046095D01*
X130315904Y-114998476D01*
X129506380Y-114998476D01*
X130506380Y-113998476D02*
X130506380Y-114569904D01*
X130506380Y-114284190D02*
X129506380Y-114284190D01*
X129649238Y-114379428D01*
X129744476Y-114474666D01*
X129792095Y-114569904D01*
X107926380Y-116403238D02*
X107926380Y-116879428D01*
X106926380Y-116879428D01*
X106926380Y-116165142D02*
X106926380Y-115498476D01*
X107926380Y-115927047D01*
X107354952Y-114974666D02*
X107307333Y-115069904D01*
X107259714Y-115117523D01*
X107164476Y-115165142D01*
X107116857Y-115165142D01*
X107021619Y-115117523D01*
X106974000Y-115069904D01*
X106926380Y-114974666D01*
X106926380Y-114784190D01*
X106974000Y-114688952D01*
X107021619Y-114641333D01*
X107116857Y-114593714D01*
X107164476Y-114593714D01*
X107259714Y-114641333D01*
X107307333Y-114688952D01*
X107354952Y-114784190D01*
X107354952Y-114974666D01*
X107402571Y-115069904D01*
X107450190Y-115117523D01*
X107545428Y-115165142D01*
X107735904Y-115165142D01*
X107831142Y-115117523D01*
X107878761Y-115069904D01*
X107926380Y-114974666D01*
X107926380Y-114784190D01*
X107878761Y-114688952D01*
X107831142Y-114641333D01*
X107735904Y-114593714D01*
X107545428Y-114593714D01*
X107450190Y-114641333D01*
X107402571Y-114688952D01*
X107354952Y-114784190D01*
X106926380Y-113974666D02*
X106926380Y-113879428D01*
X106974000Y-113784190D01*
X107021619Y-113736571D01*
X107116857Y-113688952D01*
X107307333Y-113641333D01*
X107545428Y-113641333D01*
X107735904Y-113688952D01*
X107831142Y-113736571D01*
X107878761Y-113784190D01*
X107926380Y-113879428D01*
X107926380Y-113974666D01*
X107878761Y-114069904D01*
X107831142Y-114117523D01*
X107735904Y-114165142D01*
X107545428Y-114212761D01*
X107307333Y-114212761D01*
X107116857Y-114165142D01*
X107021619Y-114117523D01*
X106974000Y-114069904D01*
X106926380Y-113974666D01*
X106926380Y-112736571D02*
X106926380Y-113212761D01*
X107402571Y-113260380D01*
X107354952Y-113212761D01*
X107307333Y-113117523D01*
X107307333Y-112879428D01*
X107354952Y-112784190D01*
X107402571Y-112736571D01*
X107497809Y-112688952D01*
X107735904Y-112688952D01*
X107831142Y-112736571D01*
X107878761Y-112784190D01*
X107926380Y-112879428D01*
X107926380Y-113117523D01*
X107878761Y-113212761D01*
X107831142Y-113260380D01*
X65924666Y-34218761D02*
X66067523Y-34266380D01*
X66305619Y-34266380D01*
X66400857Y-34218761D01*
X66448476Y-34171142D01*
X66496095Y-34075904D01*
X66496095Y-33980666D01*
X66448476Y-33885428D01*
X66400857Y-33837809D01*
X66305619Y-33790190D01*
X66115142Y-33742571D01*
X66019904Y-33694952D01*
X65972285Y-33647333D01*
X65924666Y-33552095D01*
X65924666Y-33456857D01*
X65972285Y-33361619D01*
X66019904Y-33314000D01*
X66115142Y-33266380D01*
X66353238Y-33266380D01*
X66496095Y-33314000D01*
X66829428Y-33266380D02*
X67067523Y-34266380D01*
X67258000Y-33552095D01*
X67448476Y-34266380D01*
X67686571Y-33266380D01*
X68591333Y-34266380D02*
X68019904Y-34266380D01*
X68305619Y-34266380D02*
X68305619Y-33266380D01*
X68210380Y-33409238D01*
X68115142Y-33504476D01*
X68019904Y-33552095D01*
X68396380Y-78652666D02*
X67920190Y-78986000D01*
X68396380Y-79224095D02*
X67396380Y-79224095D01*
X67396380Y-78843142D01*
X67444000Y-78747904D01*
X67491619Y-78700285D01*
X67586857Y-78652666D01*
X67729714Y-78652666D01*
X67824952Y-78700285D01*
X67872571Y-78747904D01*
X67920190Y-78843142D01*
X67920190Y-79224095D01*
X67396380Y-77747904D02*
X67396380Y-78224095D01*
X67872571Y-78271714D01*
X67824952Y-78224095D01*
X67777333Y-78128857D01*
X67777333Y-77890761D01*
X67824952Y-77795523D01*
X67872571Y-77747904D01*
X67967809Y-77700285D01*
X68205904Y-77700285D01*
X68301142Y-77747904D01*
X68348761Y-77795523D01*
X68396380Y-77890761D01*
X68396380Y-78128857D01*
X68348761Y-78224095D01*
X68301142Y-78271714D01*
X62492095Y-76763619D02*
X62539714Y-76716000D01*
X62634952Y-76668380D01*
X62873047Y-76668380D01*
X62968285Y-76716000D01*
X63015904Y-76763619D01*
X63063523Y-76858857D01*
X63063523Y-76954095D01*
X63015904Y-77096952D01*
X62444476Y-77668380D01*
X63063523Y-77668380D01*
X63444476Y-76763619D02*
X63492095Y-76716000D01*
X63587333Y-76668380D01*
X63825428Y-76668380D01*
X63920666Y-76716000D01*
X63968285Y-76763619D01*
X64015904Y-76858857D01*
X64015904Y-76954095D01*
X63968285Y-77096952D01*
X63396857Y-77668380D01*
X64015904Y-77668380D01*
X64444476Y-77668380D02*
X64444476Y-76668380D01*
X65015904Y-77668380D02*
X64587333Y-77096952D01*
X65015904Y-76668380D02*
X64444476Y-77239809D01*
X70174380Y-50966666D02*
X69698190Y-51300000D01*
X70174380Y-51538095D02*
X69174380Y-51538095D01*
X69174380Y-51157142D01*
X69222000Y-51061904D01*
X69269619Y-51014285D01*
X69364857Y-50966666D01*
X69507714Y-50966666D01*
X69602952Y-51014285D01*
X69650571Y-51061904D01*
X69698190Y-51157142D01*
X69698190Y-51538095D01*
X69507714Y-50109523D02*
X70174380Y-50109523D01*
X69126761Y-50347619D02*
X69841047Y-50585714D01*
X69841047Y-49966666D01*
X68524380Y-49458476D02*
X68524380Y-50029904D01*
X68524380Y-49744190D02*
X67524380Y-49744190D01*
X67667238Y-49839428D01*
X67762476Y-49934666D01*
X67810095Y-50029904D01*
X67524380Y-48839428D02*
X67524380Y-48744190D01*
X67572000Y-48648952D01*
X67619619Y-48601333D01*
X67714857Y-48553714D01*
X67905333Y-48506095D01*
X68143428Y-48506095D01*
X68333904Y-48553714D01*
X68429142Y-48601333D01*
X68476761Y-48648952D01*
X68524380Y-48744190D01*
X68524380Y-48839428D01*
X68476761Y-48934666D01*
X68429142Y-48982285D01*
X68333904Y-49029904D01*
X68143428Y-49077523D01*
X67905333Y-49077523D01*
X67714857Y-49029904D01*
X67619619Y-48982285D01*
X67572000Y-48934666D01*
X67524380Y-48839428D01*
X68524380Y-48077523D02*
X67524380Y-48077523D01*
X68524380Y-47506095D02*
X67952952Y-47934666D01*
X67524380Y-47506095D02*
X68095809Y-48077523D01*
X66746380Y-52998666D02*
X66270190Y-53332000D01*
X66746380Y-53570095D02*
X65746380Y-53570095D01*
X65746380Y-53189142D01*
X65794000Y-53093904D01*
X65841619Y-53046285D01*
X65936857Y-52998666D01*
X66079714Y-52998666D01*
X66174952Y-53046285D01*
X66222571Y-53093904D01*
X66270190Y-53189142D01*
X66270190Y-53570095D01*
X65746380Y-52665333D02*
X65746380Y-52046285D01*
X66127333Y-52379619D01*
X66127333Y-52236761D01*
X66174952Y-52141523D01*
X66222571Y-52093904D01*
X66317809Y-52046285D01*
X66555904Y-52046285D01*
X66651142Y-52093904D01*
X66698761Y-52141523D01*
X66746380Y-52236761D01*
X66746380Y-52522476D01*
X66698761Y-52617714D01*
X66651142Y-52665333D01*
X66619523Y-56966380D02*
X66048095Y-56966380D01*
X66333809Y-56966380D02*
X66333809Y-55966380D01*
X66238571Y-56109238D01*
X66143333Y-56204476D01*
X66048095Y-56252095D01*
X67238571Y-55966380D02*
X67333809Y-55966380D01*
X67429047Y-56014000D01*
X67476666Y-56061619D01*
X67524285Y-56156857D01*
X67571904Y-56347333D01*
X67571904Y-56585428D01*
X67524285Y-56775904D01*
X67476666Y-56871142D01*
X67429047Y-56918761D01*
X67333809Y-56966380D01*
X67238571Y-56966380D01*
X67143333Y-56918761D01*
X67095714Y-56871142D01*
X67048095Y-56775904D01*
X67000476Y-56585428D01*
X67000476Y-56347333D01*
X67048095Y-56156857D01*
X67095714Y-56061619D01*
X67143333Y-56014000D01*
X67238571Y-55966380D01*
X68000476Y-56966380D02*
X68000476Y-55966380D01*
X68571904Y-56966380D02*
X68143333Y-56394952D01*
X68571904Y-55966380D02*
X68000476Y-56537809D01*
X82129333Y-33473380D02*
X81796000Y-32997190D01*
X81557904Y-33473380D02*
X81557904Y-32473380D01*
X81938857Y-32473380D01*
X82034095Y-32521000D01*
X82081714Y-32568619D01*
X82129333Y-32663857D01*
X82129333Y-32806714D01*
X82081714Y-32901952D01*
X82034095Y-32949571D01*
X81938857Y-32997190D01*
X81557904Y-32997190D01*
X82510285Y-32568619D02*
X82557904Y-32521000D01*
X82653142Y-32473380D01*
X82891238Y-32473380D01*
X82986476Y-32521000D01*
X83034095Y-32568619D01*
X83081714Y-32663857D01*
X83081714Y-32759095D01*
X83034095Y-32901952D01*
X82462666Y-33473380D01*
X83081714Y-33473380D01*
X85161523Y-35123380D02*
X84590095Y-35123380D01*
X84875809Y-35123380D02*
X84875809Y-34123380D01*
X84780571Y-34266238D01*
X84685333Y-34361476D01*
X84590095Y-34409095D01*
X85780571Y-34123380D02*
X85875809Y-34123380D01*
X85971047Y-34171000D01*
X86018666Y-34218619D01*
X86066285Y-34313857D01*
X86113904Y-34504333D01*
X86113904Y-34742428D01*
X86066285Y-34932904D01*
X86018666Y-35028142D01*
X85971047Y-35075761D01*
X85875809Y-35123380D01*
X85780571Y-35123380D01*
X85685333Y-35075761D01*
X85637714Y-35028142D01*
X85590095Y-34932904D01*
X85542476Y-34742428D01*
X85542476Y-34504333D01*
X85590095Y-34313857D01*
X85637714Y-34218619D01*
X85685333Y-34171000D01*
X85780571Y-34123380D01*
X86542476Y-35123380D02*
X86542476Y-34123380D01*
X87113904Y-35123380D02*
X86685333Y-34551952D01*
X87113904Y-34123380D02*
X86542476Y-34694809D01*
X74001333Y-37282380D02*
X73668000Y-36806190D01*
X73429904Y-37282380D02*
X73429904Y-36282380D01*
X73810857Y-36282380D01*
X73906095Y-36330000D01*
X73953714Y-36377619D01*
X74001333Y-36472857D01*
X74001333Y-36615714D01*
X73953714Y-36710952D01*
X73906095Y-36758571D01*
X73810857Y-36806190D01*
X73429904Y-36806190D01*
X74953714Y-37282380D02*
X74382285Y-37282380D01*
X74668000Y-37282380D02*
X74668000Y-36282380D01*
X74572761Y-36425238D01*
X74477523Y-36520476D01*
X74382285Y-36568095D01*
X75676285Y-34759380D02*
X76295333Y-34759380D01*
X75962000Y-35140333D01*
X76104857Y-35140333D01*
X76200095Y-35187952D01*
X76247714Y-35235571D01*
X76295333Y-35330809D01*
X76295333Y-35568904D01*
X76247714Y-35664142D01*
X76200095Y-35711761D01*
X76104857Y-35759380D01*
X75819142Y-35759380D01*
X75723904Y-35711761D01*
X75676285Y-35664142D01*
X76628666Y-34759380D02*
X77247714Y-34759380D01*
X76914380Y-35140333D01*
X77057238Y-35140333D01*
X77152476Y-35187952D01*
X77200095Y-35235571D01*
X77247714Y-35330809D01*
X77247714Y-35568904D01*
X77200095Y-35664142D01*
X77152476Y-35711761D01*
X77057238Y-35759380D01*
X76771523Y-35759380D01*
X76676285Y-35711761D01*
X76628666Y-35664142D01*
X77866761Y-34759380D02*
X77962000Y-34759380D01*
X78057238Y-34807000D01*
X78104857Y-34854619D01*
X78152476Y-34949857D01*
X78200095Y-35140333D01*
X78200095Y-35378428D01*
X78152476Y-35568904D01*
X78104857Y-35664142D01*
X78057238Y-35711761D01*
X77962000Y-35759380D01*
X77866761Y-35759380D01*
X77771523Y-35711761D01*
X77723904Y-35664142D01*
X77676285Y-35568904D01*
X77628666Y-35378428D01*
X77628666Y-35140333D01*
X77676285Y-34949857D01*
X77723904Y-34854619D01*
X77771523Y-34807000D01*
X77866761Y-34759380D01*
X76549666Y-117413380D02*
X76549666Y-118127666D01*
X76502047Y-118270523D01*
X76406809Y-118365761D01*
X76263952Y-118413380D01*
X76168714Y-118413380D01*
X76978238Y-117508619D02*
X77025857Y-117461000D01*
X77121095Y-117413380D01*
X77359190Y-117413380D01*
X77454428Y-117461000D01*
X77502047Y-117508619D01*
X77549666Y-117603857D01*
X77549666Y-117699095D01*
X77502047Y-117841952D01*
X76930619Y-118413380D01*
X77549666Y-118413380D01*
X91400380Y-126952333D02*
X92114666Y-126952333D01*
X92257523Y-126999952D01*
X92352761Y-127095190D01*
X92400380Y-127238047D01*
X92400380Y-127333285D01*
X92400380Y-125952333D02*
X92400380Y-126523761D01*
X92400380Y-126238047D02*
X91400380Y-126238047D01*
X91543238Y-126333285D01*
X91638476Y-126428523D01*
X91686095Y-126523761D01*
X72206380Y-54586095D02*
X71206380Y-54586095D01*
X71206380Y-54348000D01*
X71254000Y-54205142D01*
X71349238Y-54109904D01*
X71444476Y-54062285D01*
X71634952Y-54014666D01*
X71777809Y-54014666D01*
X71968285Y-54062285D01*
X72063523Y-54109904D01*
X72158761Y-54205142D01*
X72206380Y-54348000D01*
X72206380Y-54586095D01*
X72206380Y-53062285D02*
X72206380Y-53633714D01*
X72206380Y-53348000D02*
X71206380Y-53348000D01*
X71349238Y-53443238D01*
X71444476Y-53538476D01*
X71492095Y-53633714D01*
X72111142Y-58545857D02*
X72158761Y-58593476D01*
X72206380Y-58736333D01*
X72206380Y-58831571D01*
X72158761Y-58974428D01*
X72063523Y-59069666D01*
X71968285Y-59117285D01*
X71777809Y-59164904D01*
X71634952Y-59164904D01*
X71444476Y-59117285D01*
X71349238Y-59069666D01*
X71254000Y-58974428D01*
X71206380Y-58831571D01*
X71206380Y-58736333D01*
X71254000Y-58593476D01*
X71301619Y-58545857D01*
X72206380Y-57593476D02*
X72206380Y-58164904D01*
X72206380Y-57879190D02*
X71206380Y-57879190D01*
X71349238Y-57974428D01*
X71444476Y-58069666D01*
X71492095Y-58164904D01*
X71206380Y-57260142D02*
X71206380Y-56593476D01*
X72206380Y-57022047D01*
X69302380Y-63618857D02*
X69302380Y-63523619D01*
X69350000Y-63428380D01*
X69397619Y-63380761D01*
X69492857Y-63333142D01*
X69683333Y-63285523D01*
X69921428Y-63285523D01*
X70111904Y-63333142D01*
X70207142Y-63380761D01*
X70254761Y-63428380D01*
X70302380Y-63523619D01*
X70302380Y-63618857D01*
X70254761Y-63714095D01*
X70207142Y-63761714D01*
X70111904Y-63809333D01*
X69921428Y-63856952D01*
X69683333Y-63856952D01*
X69492857Y-63809333D01*
X69397619Y-63761714D01*
X69350000Y-63714095D01*
X69302380Y-63618857D01*
X70207142Y-62856952D02*
X70254761Y-62809333D01*
X70302380Y-62856952D01*
X70254761Y-62904571D01*
X70207142Y-62856952D01*
X70302380Y-62856952D01*
X70302380Y-61856952D02*
X70302380Y-62428380D01*
X70302380Y-62142666D02*
X69302380Y-62142666D01*
X69445238Y-62237904D01*
X69540476Y-62333142D01*
X69588095Y-62428380D01*
X69635714Y-60999809D02*
X70302380Y-60999809D01*
X69635714Y-61428380D02*
X70159523Y-61428380D01*
X70254761Y-61380761D01*
X70302380Y-61285523D01*
X70302380Y-61142666D01*
X70254761Y-61047428D01*
X70207142Y-60999809D01*
X69778571Y-60190285D02*
X69778571Y-60523619D01*
X70302380Y-60523619D02*
X69302380Y-60523619D01*
X69302380Y-60047428D01*
X47729142Y-76969857D02*
X47776761Y-77017476D01*
X47824380Y-77160333D01*
X47824380Y-77255571D01*
X47776761Y-77398428D01*
X47681523Y-77493666D01*
X47586285Y-77541285D01*
X47395809Y-77588904D01*
X47252952Y-77588904D01*
X47062476Y-77541285D01*
X46967238Y-77493666D01*
X46872000Y-77398428D01*
X46824380Y-77255571D01*
X46824380Y-77160333D01*
X46872000Y-77017476D01*
X46919619Y-76969857D01*
X47824380Y-76017476D02*
X47824380Y-76588904D01*
X47824380Y-76303190D02*
X46824380Y-76303190D01*
X46967238Y-76398428D01*
X47062476Y-76493666D01*
X47110095Y-76588904D01*
X46824380Y-75160333D02*
X46824380Y-75350809D01*
X46872000Y-75446047D01*
X46919619Y-75493666D01*
X47062476Y-75588904D01*
X47252952Y-75636523D01*
X47633904Y-75636523D01*
X47729142Y-75588904D01*
X47776761Y-75541285D01*
X47824380Y-75446047D01*
X47824380Y-75255571D01*
X47776761Y-75160333D01*
X47729142Y-75112714D01*
X47633904Y-75065095D01*
X47395809Y-75065095D01*
X47300571Y-75112714D01*
X47252952Y-75160333D01*
X47205333Y-75255571D01*
X47205333Y-75446047D01*
X47252952Y-75541285D01*
X47300571Y-75588904D01*
X47395809Y-75636523D01*
X50219619Y-77969857D02*
X50172000Y-77922238D01*
X50124380Y-77827000D01*
X50124380Y-77588904D01*
X50172000Y-77493666D01*
X50219619Y-77446047D01*
X50314857Y-77398428D01*
X50410095Y-77398428D01*
X50552952Y-77446047D01*
X51124380Y-78017476D01*
X51124380Y-77398428D01*
X50219619Y-77017476D02*
X50172000Y-76969857D01*
X50124380Y-76874619D01*
X50124380Y-76636523D01*
X50172000Y-76541285D01*
X50219619Y-76493666D01*
X50314857Y-76446047D01*
X50410095Y-76446047D01*
X50552952Y-76493666D01*
X51124380Y-77065095D01*
X51124380Y-76446047D01*
X50457714Y-76017476D02*
X51457714Y-76017476D01*
X50505333Y-76017476D02*
X50457714Y-75922238D01*
X50457714Y-75731761D01*
X50505333Y-75636523D01*
X50552952Y-75588904D01*
X50648190Y-75541285D01*
X50933904Y-75541285D01*
X51029142Y-75588904D01*
X51076761Y-75636523D01*
X51124380Y-75731761D01*
X51124380Y-75922238D01*
X51076761Y-76017476D01*
X50600571Y-74779380D02*
X50600571Y-75112714D01*
X51124380Y-75112714D02*
X50124380Y-75112714D01*
X50124380Y-74636523D01*
X47729142Y-61094857D02*
X47776761Y-61142476D01*
X47824380Y-61285333D01*
X47824380Y-61380571D01*
X47776761Y-61523428D01*
X47681523Y-61618666D01*
X47586285Y-61666285D01*
X47395809Y-61713904D01*
X47252952Y-61713904D01*
X47062476Y-61666285D01*
X46967238Y-61618666D01*
X46872000Y-61523428D01*
X46824380Y-61380571D01*
X46824380Y-61285333D01*
X46872000Y-61142476D01*
X46919619Y-61094857D01*
X47824380Y-60142476D02*
X47824380Y-60713904D01*
X47824380Y-60428190D02*
X46824380Y-60428190D01*
X46967238Y-60523428D01*
X47062476Y-60618666D01*
X47110095Y-60713904D01*
X46824380Y-59237714D02*
X46824380Y-59713904D01*
X47300571Y-59761523D01*
X47252952Y-59713904D01*
X47205333Y-59618666D01*
X47205333Y-59380571D01*
X47252952Y-59285333D01*
X47300571Y-59237714D01*
X47395809Y-59190095D01*
X47633904Y-59190095D01*
X47729142Y-59237714D01*
X47776761Y-59285333D01*
X47824380Y-59380571D01*
X47824380Y-59618666D01*
X47776761Y-59713904D01*
X47729142Y-59761523D01*
X50219619Y-62094857D02*
X50172000Y-62047238D01*
X50124380Y-61952000D01*
X50124380Y-61713904D01*
X50172000Y-61618666D01*
X50219619Y-61571047D01*
X50314857Y-61523428D01*
X50410095Y-61523428D01*
X50552952Y-61571047D01*
X51124380Y-62142476D01*
X51124380Y-61523428D01*
X50219619Y-61142476D02*
X50172000Y-61094857D01*
X50124380Y-60999619D01*
X50124380Y-60761523D01*
X50172000Y-60666285D01*
X50219619Y-60618666D01*
X50314857Y-60571047D01*
X50410095Y-60571047D01*
X50552952Y-60618666D01*
X51124380Y-61190095D01*
X51124380Y-60571047D01*
X50457714Y-60142476D02*
X51457714Y-60142476D01*
X50505333Y-60142476D02*
X50457714Y-60047238D01*
X50457714Y-59856761D01*
X50505333Y-59761523D01*
X50552952Y-59713904D01*
X50648190Y-59666285D01*
X50933904Y-59666285D01*
X51029142Y-59713904D01*
X51076761Y-59761523D01*
X51124380Y-59856761D01*
X51124380Y-60047238D01*
X51076761Y-60142476D01*
X50600571Y-58904380D02*
X50600571Y-59237714D01*
X51124380Y-59237714D02*
X50124380Y-59237714D01*
X50124380Y-58761523D01*
X99306142Y-69445142D02*
X99258523Y-69492761D01*
X99115666Y-69540380D01*
X99020428Y-69540380D01*
X98877571Y-69492761D01*
X98782333Y-69397523D01*
X98734714Y-69302285D01*
X98687095Y-69111809D01*
X98687095Y-68968952D01*
X98734714Y-68778476D01*
X98782333Y-68683238D01*
X98877571Y-68588000D01*
X99020428Y-68540380D01*
X99115666Y-68540380D01*
X99258523Y-68588000D01*
X99306142Y-68635619D01*
X100258523Y-69540380D02*
X99687095Y-69540380D01*
X99972809Y-69540380D02*
X99972809Y-68540380D01*
X99877571Y-68683238D01*
X99782333Y-68778476D01*
X99687095Y-68826095D01*
X101115666Y-68873714D02*
X101115666Y-69540380D01*
X100877571Y-68492761D02*
X100639476Y-69207047D01*
X101258523Y-69207047D01*
X101608142Y-70158619D02*
X101655761Y-70111000D01*
X101751000Y-70063380D01*
X101989095Y-70063380D01*
X102084333Y-70111000D01*
X102131952Y-70158619D01*
X102179571Y-70253857D01*
X102179571Y-70349095D01*
X102131952Y-70491952D01*
X101560523Y-71063380D01*
X102179571Y-71063380D01*
X102560523Y-70158619D02*
X102608142Y-70111000D01*
X102703380Y-70063380D01*
X102941476Y-70063380D01*
X103036714Y-70111000D01*
X103084333Y-70158619D01*
X103131952Y-70253857D01*
X103131952Y-70349095D01*
X103084333Y-70491952D01*
X102512904Y-71063380D01*
X103131952Y-71063380D01*
X103560523Y-70396714D02*
X103560523Y-71396714D01*
X103560523Y-70444333D02*
X103655761Y-70396714D01*
X103846238Y-70396714D01*
X103941476Y-70444333D01*
X103989095Y-70491952D01*
X104036714Y-70587190D01*
X104036714Y-70872904D01*
X103989095Y-70968142D01*
X103941476Y-71015761D01*
X103846238Y-71063380D01*
X103655761Y-71063380D01*
X103560523Y-71015761D01*
X104798619Y-70539571D02*
X104465285Y-70539571D01*
X104465285Y-71063380D02*
X104465285Y-70063380D01*
X104941476Y-70063380D01*
X107815142Y-40488142D02*
X107767523Y-40535761D01*
X107624666Y-40583380D01*
X107529428Y-40583380D01*
X107386571Y-40535761D01*
X107291333Y-40440523D01*
X107243714Y-40345285D01*
X107196095Y-40154809D01*
X107196095Y-40011952D01*
X107243714Y-39821476D01*
X107291333Y-39726238D01*
X107386571Y-39631000D01*
X107529428Y-39583380D01*
X107624666Y-39583380D01*
X107767523Y-39631000D01*
X107815142Y-39678619D01*
X108767523Y-40583380D02*
X108196095Y-40583380D01*
X108481809Y-40583380D02*
X108481809Y-39583380D01*
X108386571Y-39726238D01*
X108291333Y-39821476D01*
X108196095Y-39869095D01*
X109100857Y-39583380D02*
X109719904Y-39583380D01*
X109386571Y-39964333D01*
X109529428Y-39964333D01*
X109624666Y-40011952D01*
X109672285Y-40059571D01*
X109719904Y-40154809D01*
X109719904Y-40392904D01*
X109672285Y-40488142D01*
X109624666Y-40535761D01*
X109529428Y-40583380D01*
X109243714Y-40583380D01*
X109148476Y-40535761D01*
X109100857Y-40488142D01*
X106815142Y-36283380D02*
X106910380Y-36283380D01*
X107005619Y-36331000D01*
X107053238Y-36378619D01*
X107100857Y-36473857D01*
X107148476Y-36664333D01*
X107148476Y-36902428D01*
X107100857Y-37092904D01*
X107053238Y-37188142D01*
X107005619Y-37235761D01*
X106910380Y-37283380D01*
X106815142Y-37283380D01*
X106719904Y-37235761D01*
X106672285Y-37188142D01*
X106624666Y-37092904D01*
X106577047Y-36902428D01*
X106577047Y-36664333D01*
X106624666Y-36473857D01*
X106672285Y-36378619D01*
X106719904Y-36331000D01*
X106815142Y-36283380D01*
X107577047Y-37188142D02*
X107624666Y-37235761D01*
X107577047Y-37283380D01*
X107529428Y-37235761D01*
X107577047Y-37188142D01*
X107577047Y-37283380D01*
X108577047Y-37283380D02*
X108005619Y-37283380D01*
X108291333Y-37283380D02*
X108291333Y-36283380D01*
X108196095Y-36426238D01*
X108100857Y-36521476D01*
X108005619Y-36569095D01*
X109434190Y-36616714D02*
X109434190Y-37283380D01*
X109005619Y-36616714D02*
X109005619Y-37140523D01*
X109053238Y-37235761D01*
X109148476Y-37283380D01*
X109291333Y-37283380D01*
X109386571Y-37235761D01*
X109434190Y-37188142D01*
X110243714Y-36759571D02*
X109910380Y-36759571D01*
X109910380Y-37283380D02*
X109910380Y-36283380D01*
X110386571Y-36283380D01*
X68937142Y-96781857D02*
X68984761Y-96829476D01*
X69032380Y-96972333D01*
X69032380Y-97067571D01*
X68984761Y-97210428D01*
X68889523Y-97305666D01*
X68794285Y-97353285D01*
X68603809Y-97400904D01*
X68460952Y-97400904D01*
X68270476Y-97353285D01*
X68175238Y-97305666D01*
X68080000Y-97210428D01*
X68032380Y-97067571D01*
X68032380Y-96972333D01*
X68080000Y-96829476D01*
X68127619Y-96781857D01*
X69032380Y-95829476D02*
X69032380Y-96400904D01*
X69032380Y-96115190D02*
X68032380Y-96115190D01*
X68175238Y-96210428D01*
X68270476Y-96305666D01*
X68318095Y-96400904D01*
X68127619Y-95448523D02*
X68080000Y-95400904D01*
X68032380Y-95305666D01*
X68032380Y-95067571D01*
X68080000Y-94972333D01*
X68127619Y-94924714D01*
X68222857Y-94877095D01*
X68318095Y-94877095D01*
X68460952Y-94924714D01*
X69032380Y-95496142D01*
X69032380Y-94877095D01*
X71460380Y-97781857D02*
X71460380Y-97686619D01*
X71508000Y-97591380D01*
X71555619Y-97543761D01*
X71650857Y-97496142D01*
X71841333Y-97448523D01*
X72079428Y-97448523D01*
X72269904Y-97496142D01*
X72365142Y-97543761D01*
X72412761Y-97591380D01*
X72460380Y-97686619D01*
X72460380Y-97781857D01*
X72412761Y-97877095D01*
X72365142Y-97924714D01*
X72269904Y-97972333D01*
X72079428Y-98019952D01*
X71841333Y-98019952D01*
X71650857Y-97972333D01*
X71555619Y-97924714D01*
X71508000Y-97877095D01*
X71460380Y-97781857D01*
X72365142Y-97019952D02*
X72412761Y-96972333D01*
X72460380Y-97019952D01*
X72412761Y-97067571D01*
X72365142Y-97019952D01*
X72460380Y-97019952D01*
X72460380Y-96019952D02*
X72460380Y-96591380D01*
X72460380Y-96305666D02*
X71460380Y-96305666D01*
X71603238Y-96400904D01*
X71698476Y-96496142D01*
X71746095Y-96591380D01*
X71793714Y-95162809D02*
X72460380Y-95162809D01*
X71793714Y-95591380D02*
X72317523Y-95591380D01*
X72412761Y-95543761D01*
X72460380Y-95448523D01*
X72460380Y-95305666D01*
X72412761Y-95210428D01*
X72365142Y-95162809D01*
X71936571Y-94353285D02*
X71936571Y-94686619D01*
X72460380Y-94686619D02*
X71460380Y-94686619D01*
X71460380Y-94210428D01*
X64127142Y-47983142D02*
X64079523Y-48030761D01*
X63936666Y-48078380D01*
X63841428Y-48078380D01*
X63698571Y-48030761D01*
X63603333Y-47935523D01*
X63555714Y-47840285D01*
X63508095Y-47649809D01*
X63508095Y-47506952D01*
X63555714Y-47316476D01*
X63603333Y-47221238D01*
X63698571Y-47126000D01*
X63841428Y-47078380D01*
X63936666Y-47078380D01*
X64079523Y-47126000D01*
X64127142Y-47173619D01*
X65079523Y-48078380D02*
X64508095Y-48078380D01*
X64793809Y-48078380D02*
X64793809Y-47078380D01*
X64698571Y-47221238D01*
X64603333Y-47316476D01*
X64508095Y-47364095D01*
X66031904Y-48078380D02*
X65460476Y-48078380D01*
X65746190Y-48078380D02*
X65746190Y-47078380D01*
X65650952Y-47221238D01*
X65555714Y-47316476D01*
X65460476Y-47364095D01*
X102227142Y-121641142D02*
X102179523Y-121688761D01*
X102036666Y-121736380D01*
X101941428Y-121736380D01*
X101798571Y-121688761D01*
X101703333Y-121593523D01*
X101655714Y-121498285D01*
X101608095Y-121307809D01*
X101608095Y-121164952D01*
X101655714Y-120974476D01*
X101703333Y-120879238D01*
X101798571Y-120784000D01*
X101941428Y-120736380D01*
X102036666Y-120736380D01*
X102179523Y-120784000D01*
X102227142Y-120831619D01*
X103179523Y-121736380D02*
X102608095Y-121736380D01*
X102893809Y-121736380D02*
X102893809Y-120736380D01*
X102798571Y-120879238D01*
X102703333Y-120974476D01*
X102608095Y-121022095D01*
X103798571Y-120736380D02*
X103893809Y-120736380D01*
X103989047Y-120784000D01*
X104036666Y-120831619D01*
X104084285Y-120926857D01*
X104131904Y-121117333D01*
X104131904Y-121355428D01*
X104084285Y-121545904D01*
X104036666Y-121641142D01*
X103989047Y-121688761D01*
X103893809Y-121736380D01*
X103798571Y-121736380D01*
X103703333Y-121688761D01*
X103655714Y-121641142D01*
X103608095Y-121545904D01*
X103560476Y-121355428D01*
X103560476Y-121117333D01*
X103608095Y-120926857D01*
X103655714Y-120831619D01*
X103703333Y-120784000D01*
X103798571Y-120736380D01*
X101227142Y-117436380D02*
X101322380Y-117436380D01*
X101417619Y-117484000D01*
X101465238Y-117531619D01*
X101512857Y-117626857D01*
X101560476Y-117817333D01*
X101560476Y-118055428D01*
X101512857Y-118245904D01*
X101465238Y-118341142D01*
X101417619Y-118388761D01*
X101322380Y-118436380D01*
X101227142Y-118436380D01*
X101131904Y-118388761D01*
X101084285Y-118341142D01*
X101036666Y-118245904D01*
X100989047Y-118055428D01*
X100989047Y-117817333D01*
X101036666Y-117626857D01*
X101084285Y-117531619D01*
X101131904Y-117484000D01*
X101227142Y-117436380D01*
X101989047Y-118341142D02*
X102036666Y-118388761D01*
X101989047Y-118436380D01*
X101941428Y-118388761D01*
X101989047Y-118341142D01*
X101989047Y-118436380D01*
X102989047Y-118436380D02*
X102417619Y-118436380D01*
X102703333Y-118436380D02*
X102703333Y-117436380D01*
X102608095Y-117579238D01*
X102512857Y-117674476D01*
X102417619Y-117722095D01*
X103846190Y-117769714D02*
X103846190Y-118436380D01*
X103417619Y-117769714D02*
X103417619Y-118293523D01*
X103465238Y-118388761D01*
X103560476Y-118436380D01*
X103703333Y-118436380D01*
X103798571Y-118388761D01*
X103846190Y-118341142D01*
X104655714Y-117912571D02*
X104322380Y-117912571D01*
X104322380Y-118436380D02*
X104322380Y-117436380D01*
X104798571Y-117436380D01*
X51031142Y-83478666D02*
X51078761Y-83526285D01*
X51126380Y-83669142D01*
X51126380Y-83764380D01*
X51078761Y-83907238D01*
X50983523Y-84002476D01*
X50888285Y-84050095D01*
X50697809Y-84097714D01*
X50554952Y-84097714D01*
X50364476Y-84050095D01*
X50269238Y-84002476D01*
X50174000Y-83907238D01*
X50126380Y-83764380D01*
X50126380Y-83669142D01*
X50174000Y-83526285D01*
X50221619Y-83478666D01*
X51126380Y-83002476D02*
X51126380Y-82812000D01*
X51078761Y-82716761D01*
X51031142Y-82669142D01*
X50888285Y-82573904D01*
X50697809Y-82526285D01*
X50316857Y-82526285D01*
X50221619Y-82573904D01*
X50174000Y-82621523D01*
X50126380Y-82716761D01*
X50126380Y-82907238D01*
X50174000Y-83002476D01*
X50221619Y-83050095D01*
X50316857Y-83097714D01*
X50554952Y-83097714D01*
X50650190Y-83050095D01*
X50697809Y-83002476D01*
X50745428Y-82907238D01*
X50745428Y-82716761D01*
X50697809Y-82621523D01*
X50650190Y-82573904D01*
X50554952Y-82526285D01*
X53426380Y-84954857D02*
X53426380Y-84859619D01*
X53474000Y-84764380D01*
X53521619Y-84716761D01*
X53616857Y-84669142D01*
X53807333Y-84621523D01*
X54045428Y-84621523D01*
X54235904Y-84669142D01*
X54331142Y-84716761D01*
X54378761Y-84764380D01*
X54426380Y-84859619D01*
X54426380Y-84954857D01*
X54378761Y-85050095D01*
X54331142Y-85097714D01*
X54235904Y-85145333D01*
X54045428Y-85192952D01*
X53807333Y-85192952D01*
X53616857Y-85145333D01*
X53521619Y-85097714D01*
X53474000Y-85050095D01*
X53426380Y-84954857D01*
X54331142Y-84192952D02*
X54378761Y-84145333D01*
X54426380Y-84192952D01*
X54378761Y-84240571D01*
X54331142Y-84192952D01*
X54426380Y-84192952D01*
X54426380Y-83192952D02*
X54426380Y-83764380D01*
X54426380Y-83478666D02*
X53426380Y-83478666D01*
X53569238Y-83573904D01*
X53664476Y-83669142D01*
X53712095Y-83764380D01*
X53759714Y-82335809D02*
X54426380Y-82335809D01*
X53759714Y-82764380D02*
X54283523Y-82764380D01*
X54378761Y-82716761D01*
X54426380Y-82621523D01*
X54426380Y-82478666D01*
X54378761Y-82383428D01*
X54331142Y-82335809D01*
X53902571Y-81526285D02*
X53902571Y-81859619D01*
X54426380Y-81859619D02*
X53426380Y-81859619D01*
X53426380Y-81383428D01*
X123277333Y-37948142D02*
X123229714Y-37995761D01*
X123086857Y-38043380D01*
X122991619Y-38043380D01*
X122848761Y-37995761D01*
X122753523Y-37900523D01*
X122705904Y-37805285D01*
X122658285Y-37614809D01*
X122658285Y-37471952D01*
X122705904Y-37281476D01*
X122753523Y-37186238D01*
X122848761Y-37091000D01*
X122991619Y-37043380D01*
X123086857Y-37043380D01*
X123229714Y-37091000D01*
X123277333Y-37138619D01*
X123848761Y-37471952D02*
X123753523Y-37424333D01*
X123705904Y-37376714D01*
X123658285Y-37281476D01*
X123658285Y-37233857D01*
X123705904Y-37138619D01*
X123753523Y-37091000D01*
X123848761Y-37043380D01*
X124039238Y-37043380D01*
X124134476Y-37091000D01*
X124182095Y-37138619D01*
X124229714Y-37233857D01*
X124229714Y-37281476D01*
X124182095Y-37376714D01*
X124134476Y-37424333D01*
X124039238Y-37471952D01*
X123848761Y-37471952D01*
X123753523Y-37519571D01*
X123705904Y-37567190D01*
X123658285Y-37662428D01*
X123658285Y-37852904D01*
X123705904Y-37948142D01*
X123753523Y-37995761D01*
X123848761Y-38043380D01*
X124039238Y-38043380D01*
X124134476Y-37995761D01*
X124182095Y-37948142D01*
X124229714Y-37852904D01*
X124229714Y-37662428D01*
X124182095Y-37567190D01*
X124134476Y-37519571D01*
X124039238Y-37471952D01*
X121801142Y-33743380D02*
X121896380Y-33743380D01*
X121991619Y-33791000D01*
X122039238Y-33838619D01*
X122086857Y-33933857D01*
X122134476Y-34124333D01*
X122134476Y-34362428D01*
X122086857Y-34552904D01*
X122039238Y-34648142D01*
X121991619Y-34695761D01*
X121896380Y-34743380D01*
X121801142Y-34743380D01*
X121705904Y-34695761D01*
X121658285Y-34648142D01*
X121610666Y-34552904D01*
X121563047Y-34362428D01*
X121563047Y-34124333D01*
X121610666Y-33933857D01*
X121658285Y-33838619D01*
X121705904Y-33791000D01*
X121801142Y-33743380D01*
X122563047Y-34648142D02*
X122610666Y-34695761D01*
X122563047Y-34743380D01*
X122515428Y-34695761D01*
X122563047Y-34648142D01*
X122563047Y-34743380D01*
X123563047Y-34743380D02*
X122991619Y-34743380D01*
X123277333Y-34743380D02*
X123277333Y-33743380D01*
X123182095Y-33886238D01*
X123086857Y-33981476D01*
X122991619Y-34029095D01*
X124420190Y-34076714D02*
X124420190Y-34743380D01*
X123991619Y-34076714D02*
X123991619Y-34600523D01*
X124039238Y-34695761D01*
X124134476Y-34743380D01*
X124277333Y-34743380D01*
X124372571Y-34695761D01*
X124420190Y-34648142D01*
X125229714Y-34219571D02*
X124896380Y-34219571D01*
X124896380Y-34743380D02*
X124896380Y-33743380D01*
X125372571Y-33743380D01*
X106611142Y-113938666D02*
X106658761Y-113986285D01*
X106706380Y-114129142D01*
X106706380Y-114224380D01*
X106658761Y-114367238D01*
X106563523Y-114462476D01*
X106468285Y-114510095D01*
X106277809Y-114557714D01*
X106134952Y-114557714D01*
X105944476Y-114510095D01*
X105849238Y-114462476D01*
X105754000Y-114367238D01*
X105706380Y-114224380D01*
X105706380Y-114129142D01*
X105754000Y-113986285D01*
X105801619Y-113938666D01*
X105706380Y-113605333D02*
X105706380Y-112938666D01*
X106706380Y-113367238D01*
X96906380Y-115891047D02*
X96906380Y-115795809D01*
X96954000Y-115700571D01*
X97001619Y-115652952D01*
X97096857Y-115605333D01*
X97287333Y-115557714D01*
X97525428Y-115557714D01*
X97715904Y-115605333D01*
X97811142Y-115652952D01*
X97858761Y-115700571D01*
X97906380Y-115795809D01*
X97906380Y-115891047D01*
X97858761Y-115986285D01*
X97811142Y-116033904D01*
X97715904Y-116081523D01*
X97525428Y-116129142D01*
X97287333Y-116129142D01*
X97096857Y-116081523D01*
X97001619Y-116033904D01*
X96954000Y-115986285D01*
X96906380Y-115891047D01*
X97811142Y-115129142D02*
X97858761Y-115081523D01*
X97906380Y-115129142D01*
X97858761Y-115176761D01*
X97811142Y-115129142D01*
X97906380Y-115129142D01*
X96906380Y-114748190D02*
X96906380Y-114129142D01*
X97287333Y-114462476D01*
X97287333Y-114319619D01*
X97334952Y-114224380D01*
X97382571Y-114176761D01*
X97477809Y-114129142D01*
X97715904Y-114129142D01*
X97811142Y-114176761D01*
X97858761Y-114224380D01*
X97906380Y-114319619D01*
X97906380Y-114605333D01*
X97858761Y-114700571D01*
X97811142Y-114748190D01*
X96906380Y-113795809D02*
X96906380Y-113176761D01*
X97287333Y-113510095D01*
X97287333Y-113367238D01*
X97334952Y-113272000D01*
X97382571Y-113224380D01*
X97477809Y-113176761D01*
X97715904Y-113176761D01*
X97811142Y-113224380D01*
X97858761Y-113272000D01*
X97906380Y-113367238D01*
X97906380Y-113652952D01*
X97858761Y-113748190D01*
X97811142Y-113795809D01*
X97239714Y-112319619D02*
X97906380Y-112319619D01*
X97239714Y-112748190D02*
X97763523Y-112748190D01*
X97858761Y-112700571D01*
X97906380Y-112605333D01*
X97906380Y-112462476D01*
X97858761Y-112367238D01*
X97811142Y-112319619D01*
X97382571Y-111510095D02*
X97382571Y-111843428D01*
X97906380Y-111843428D02*
X96906380Y-111843428D01*
X96906380Y-111367238D01*
X126088142Y-79853666D02*
X126135761Y-79901285D01*
X126183380Y-80044142D01*
X126183380Y-80139380D01*
X126135761Y-80282238D01*
X126040523Y-80377476D01*
X125945285Y-80425095D01*
X125754809Y-80472714D01*
X125611952Y-80472714D01*
X125421476Y-80425095D01*
X125326238Y-80377476D01*
X125231000Y-80282238D01*
X125183380Y-80139380D01*
X125183380Y-80044142D01*
X125231000Y-79901285D01*
X125278619Y-79853666D01*
X125183380Y-78996523D02*
X125183380Y-79187000D01*
X125231000Y-79282238D01*
X125278619Y-79329857D01*
X125421476Y-79425095D01*
X125611952Y-79472714D01*
X125992904Y-79472714D01*
X126088142Y-79425095D01*
X126135761Y-79377476D01*
X126183380Y-79282238D01*
X126183380Y-79091761D01*
X126135761Y-78996523D01*
X126088142Y-78948904D01*
X125992904Y-78901285D01*
X125754809Y-78901285D01*
X125659571Y-78948904D01*
X125611952Y-78996523D01*
X125564333Y-79091761D01*
X125564333Y-79282238D01*
X125611952Y-79377476D01*
X125659571Y-79425095D01*
X125754809Y-79472714D01*
X128483380Y-81329857D02*
X128483380Y-81234619D01*
X128531000Y-81139380D01*
X128578619Y-81091761D01*
X128673857Y-81044142D01*
X128864333Y-80996523D01*
X129102428Y-80996523D01*
X129292904Y-81044142D01*
X129388142Y-81091761D01*
X129435761Y-81139380D01*
X129483380Y-81234619D01*
X129483380Y-81329857D01*
X129435761Y-81425095D01*
X129388142Y-81472714D01*
X129292904Y-81520333D01*
X129102428Y-81567952D01*
X128864333Y-81567952D01*
X128673857Y-81520333D01*
X128578619Y-81472714D01*
X128531000Y-81425095D01*
X128483380Y-81329857D01*
X129388142Y-80567952D02*
X129435761Y-80520333D01*
X129483380Y-80567952D01*
X129435761Y-80615571D01*
X129388142Y-80567952D01*
X129483380Y-80567952D01*
X129483380Y-79567952D02*
X129483380Y-80139380D01*
X129483380Y-79853666D02*
X128483380Y-79853666D01*
X128626238Y-79948904D01*
X128721476Y-80044142D01*
X128769095Y-80139380D01*
X128816714Y-78710809D02*
X129483380Y-78710809D01*
X128816714Y-79139380D02*
X129340523Y-79139380D01*
X129435761Y-79091761D01*
X129483380Y-78996523D01*
X129483380Y-78853666D01*
X129435761Y-78758428D01*
X129388142Y-78710809D01*
X128959571Y-77901285D02*
X128959571Y-78234619D01*
X129483380Y-78234619D02*
X128483380Y-78234619D01*
X128483380Y-77758428D01*
X76175142Y-83986666D02*
X76222761Y-84034285D01*
X76270380Y-84177142D01*
X76270380Y-84272380D01*
X76222761Y-84415238D01*
X76127523Y-84510476D01*
X76032285Y-84558095D01*
X75841809Y-84605714D01*
X75698952Y-84605714D01*
X75508476Y-84558095D01*
X75413238Y-84510476D01*
X75318000Y-84415238D01*
X75270380Y-84272380D01*
X75270380Y-84177142D01*
X75318000Y-84034285D01*
X75365619Y-83986666D01*
X75270380Y-83081904D02*
X75270380Y-83558095D01*
X75746571Y-83605714D01*
X75698952Y-83558095D01*
X75651333Y-83462857D01*
X75651333Y-83224761D01*
X75698952Y-83129523D01*
X75746571Y-83081904D01*
X75841809Y-83034285D01*
X76079904Y-83034285D01*
X76175142Y-83081904D01*
X76222761Y-83129523D01*
X76270380Y-83224761D01*
X76270380Y-83462857D01*
X76222761Y-83558095D01*
X76175142Y-83605714D01*
X72065619Y-85462857D02*
X72018000Y-85415238D01*
X71970380Y-85320000D01*
X71970380Y-85081904D01*
X72018000Y-84986666D01*
X72065619Y-84939047D01*
X72160857Y-84891428D01*
X72256095Y-84891428D01*
X72398952Y-84939047D01*
X72970380Y-85510476D01*
X72970380Y-84891428D01*
X72065619Y-84510476D02*
X72018000Y-84462857D01*
X71970380Y-84367619D01*
X71970380Y-84129523D01*
X72018000Y-84034285D01*
X72065619Y-83986666D01*
X72160857Y-83939047D01*
X72256095Y-83939047D01*
X72398952Y-83986666D01*
X72970380Y-84558095D01*
X72970380Y-83939047D01*
X72303714Y-83510476D02*
X73303714Y-83510476D01*
X72351333Y-83510476D02*
X72303714Y-83415238D01*
X72303714Y-83224761D01*
X72351333Y-83129523D01*
X72398952Y-83081904D01*
X72494190Y-83034285D01*
X72779904Y-83034285D01*
X72875142Y-83081904D01*
X72922761Y-83129523D01*
X72970380Y-83224761D01*
X72970380Y-83415238D01*
X72922761Y-83510476D01*
X72446571Y-82272380D02*
X72446571Y-82605714D01*
X72970380Y-82605714D02*
X71970380Y-82605714D01*
X71970380Y-82129523D01*
X76175142Y-90082666D02*
X76222761Y-90130285D01*
X76270380Y-90273142D01*
X76270380Y-90368380D01*
X76222761Y-90511238D01*
X76127523Y-90606476D01*
X76032285Y-90654095D01*
X75841809Y-90701714D01*
X75698952Y-90701714D01*
X75508476Y-90654095D01*
X75413238Y-90606476D01*
X75318000Y-90511238D01*
X75270380Y-90368380D01*
X75270380Y-90273142D01*
X75318000Y-90130285D01*
X75365619Y-90082666D01*
X75603714Y-89225523D02*
X76270380Y-89225523D01*
X75222761Y-89463619D02*
X75937047Y-89701714D01*
X75937047Y-89082666D01*
X72065619Y-91558857D02*
X72018000Y-91511238D01*
X71970380Y-91416000D01*
X71970380Y-91177904D01*
X72018000Y-91082666D01*
X72065619Y-91035047D01*
X72160857Y-90987428D01*
X72256095Y-90987428D01*
X72398952Y-91035047D01*
X72970380Y-91606476D01*
X72970380Y-90987428D01*
X72065619Y-90606476D02*
X72018000Y-90558857D01*
X71970380Y-90463619D01*
X71970380Y-90225523D01*
X72018000Y-90130285D01*
X72065619Y-90082666D01*
X72160857Y-90035047D01*
X72256095Y-90035047D01*
X72398952Y-90082666D01*
X72970380Y-90654095D01*
X72970380Y-90035047D01*
X72303714Y-89606476D02*
X73303714Y-89606476D01*
X72351333Y-89606476D02*
X72303714Y-89511238D01*
X72303714Y-89320761D01*
X72351333Y-89225523D01*
X72398952Y-89177904D01*
X72494190Y-89130285D01*
X72779904Y-89130285D01*
X72875142Y-89177904D01*
X72922761Y-89225523D01*
X72970380Y-89320761D01*
X72970380Y-89511238D01*
X72922761Y-89606476D01*
X72446571Y-88368380D02*
X72446571Y-88701714D01*
X72970380Y-88701714D02*
X71970380Y-88701714D01*
X71970380Y-88225523D01*
X81875333Y-36934142D02*
X81827714Y-36981761D01*
X81684857Y-37029380D01*
X81589619Y-37029380D01*
X81446761Y-36981761D01*
X81351523Y-36886523D01*
X81303904Y-36791285D01*
X81256285Y-36600809D01*
X81256285Y-36457952D01*
X81303904Y-36267476D01*
X81351523Y-36172238D01*
X81446761Y-36077000D01*
X81589619Y-36029380D01*
X81684857Y-36029380D01*
X81827714Y-36077000D01*
X81875333Y-36124619D01*
X82208666Y-36029380D02*
X82827714Y-36029380D01*
X82494380Y-36410333D01*
X82637238Y-36410333D01*
X82732476Y-36457952D01*
X82780095Y-36505571D01*
X82827714Y-36600809D01*
X82827714Y-36838904D01*
X82780095Y-36934142D01*
X82732476Y-36981761D01*
X82637238Y-37029380D01*
X82351523Y-37029380D01*
X82256285Y-36981761D01*
X82208666Y-36934142D01*
X80399142Y-39329380D02*
X80494380Y-39329380D01*
X80589619Y-39377000D01*
X80637238Y-39424619D01*
X80684857Y-39519857D01*
X80732476Y-39710333D01*
X80732476Y-39948428D01*
X80684857Y-40138904D01*
X80637238Y-40234142D01*
X80589619Y-40281761D01*
X80494380Y-40329380D01*
X80399142Y-40329380D01*
X80303904Y-40281761D01*
X80256285Y-40234142D01*
X80208666Y-40138904D01*
X80161047Y-39948428D01*
X80161047Y-39710333D01*
X80208666Y-39519857D01*
X80256285Y-39424619D01*
X80303904Y-39377000D01*
X80399142Y-39329380D01*
X81161047Y-40234142D02*
X81208666Y-40281761D01*
X81161047Y-40329380D01*
X81113428Y-40281761D01*
X81161047Y-40234142D01*
X81161047Y-40329380D01*
X82161047Y-40329380D02*
X81589619Y-40329380D01*
X81875333Y-40329380D02*
X81875333Y-39329380D01*
X81780095Y-39472238D01*
X81684857Y-39567476D01*
X81589619Y-39615095D01*
X83018190Y-39662714D02*
X83018190Y-40329380D01*
X82589619Y-39662714D02*
X82589619Y-40186523D01*
X82637238Y-40281761D01*
X82732476Y-40329380D01*
X82875333Y-40329380D01*
X82970571Y-40281761D01*
X83018190Y-40234142D01*
X83827714Y-39805571D02*
X83494380Y-39805571D01*
X83494380Y-40329380D02*
X83494380Y-39329380D01*
X83970571Y-39329380D01*
X97115333Y-37823142D02*
X97067714Y-37870761D01*
X96924857Y-37918380D01*
X96829619Y-37918380D01*
X96686761Y-37870761D01*
X96591523Y-37775523D01*
X96543904Y-37680285D01*
X96496285Y-37489809D01*
X96496285Y-37346952D01*
X96543904Y-37156476D01*
X96591523Y-37061238D01*
X96686761Y-36966000D01*
X96829619Y-36918380D01*
X96924857Y-36918380D01*
X97067714Y-36966000D01*
X97115333Y-37013619D01*
X97496285Y-37013619D02*
X97543904Y-36966000D01*
X97639142Y-36918380D01*
X97877238Y-36918380D01*
X97972476Y-36966000D01*
X98020095Y-37013619D01*
X98067714Y-37108857D01*
X98067714Y-37204095D01*
X98020095Y-37346952D01*
X97448666Y-37918380D01*
X98067714Y-37918380D01*
X95639142Y-40218380D02*
X95734380Y-40218380D01*
X95829619Y-40266000D01*
X95877238Y-40313619D01*
X95924857Y-40408857D01*
X95972476Y-40599333D01*
X95972476Y-40837428D01*
X95924857Y-41027904D01*
X95877238Y-41123142D01*
X95829619Y-41170761D01*
X95734380Y-41218380D01*
X95639142Y-41218380D01*
X95543904Y-41170761D01*
X95496285Y-41123142D01*
X95448666Y-41027904D01*
X95401047Y-40837428D01*
X95401047Y-40599333D01*
X95448666Y-40408857D01*
X95496285Y-40313619D01*
X95543904Y-40266000D01*
X95639142Y-40218380D01*
X96401047Y-41123142D02*
X96448666Y-41170761D01*
X96401047Y-41218380D01*
X96353428Y-41170761D01*
X96401047Y-41123142D01*
X96401047Y-41218380D01*
X97401047Y-41218380D02*
X96829619Y-41218380D01*
X97115333Y-41218380D02*
X97115333Y-40218380D01*
X97020095Y-40361238D01*
X96924857Y-40456476D01*
X96829619Y-40504095D01*
X98258190Y-40551714D02*
X98258190Y-41218380D01*
X97829619Y-40551714D02*
X97829619Y-41075523D01*
X97877238Y-41170761D01*
X97972476Y-41218380D01*
X98115333Y-41218380D01*
X98210571Y-41170761D01*
X98258190Y-41123142D01*
X99067714Y-40694571D02*
X98734380Y-40694571D01*
X98734380Y-41218380D02*
X98734380Y-40218380D01*
X99210571Y-40218380D01*
X105243333Y-81255142D02*
X105195714Y-81302761D01*
X105052857Y-81350380D01*
X104957619Y-81350380D01*
X104814761Y-81302761D01*
X104719523Y-81207523D01*
X104671904Y-81112285D01*
X104624285Y-80921809D01*
X104624285Y-80778952D01*
X104671904Y-80588476D01*
X104719523Y-80493238D01*
X104814761Y-80398000D01*
X104957619Y-80350380D01*
X105052857Y-80350380D01*
X105195714Y-80398000D01*
X105243333Y-80445619D01*
X106195714Y-81350380D02*
X105624285Y-81350380D01*
X105910000Y-81350380D02*
X105910000Y-80350380D01*
X105814761Y-80493238D01*
X105719523Y-80588476D01*
X105624285Y-80636095D01*
X103767142Y-77050380D02*
X103862380Y-77050380D01*
X103957619Y-77098000D01*
X104005238Y-77145619D01*
X104052857Y-77240857D01*
X104100476Y-77431333D01*
X104100476Y-77669428D01*
X104052857Y-77859904D01*
X104005238Y-77955142D01*
X103957619Y-78002761D01*
X103862380Y-78050380D01*
X103767142Y-78050380D01*
X103671904Y-78002761D01*
X103624285Y-77955142D01*
X103576666Y-77859904D01*
X103529047Y-77669428D01*
X103529047Y-77431333D01*
X103576666Y-77240857D01*
X103624285Y-77145619D01*
X103671904Y-77098000D01*
X103767142Y-77050380D01*
X104529047Y-77955142D02*
X104576666Y-78002761D01*
X104529047Y-78050380D01*
X104481428Y-78002761D01*
X104529047Y-77955142D01*
X104529047Y-78050380D01*
X105529047Y-78050380D02*
X104957619Y-78050380D01*
X105243333Y-78050380D02*
X105243333Y-77050380D01*
X105148095Y-77193238D01*
X105052857Y-77288476D01*
X104957619Y-77336095D01*
X106386190Y-77383714D02*
X106386190Y-78050380D01*
X105957619Y-77383714D02*
X105957619Y-77907523D01*
X106005238Y-78002761D01*
X106100476Y-78050380D01*
X106243333Y-78050380D01*
X106338571Y-78002761D01*
X106386190Y-77955142D01*
X107195714Y-77526571D02*
X106862380Y-77526571D01*
X106862380Y-78050380D02*
X106862380Y-77050380D01*
X107338571Y-77050380D01*
M02*
